<svg width="861" height="186" viewBox="0 0 861 186" fill="none" xmlns="http://www.w3.org/2000/svg">
<g clip-path="url(#clip0_2_4)">
<g opacity="0.1">
<path d="M92.75 185.47C67.96 185.47 44.67 175.83 27.17 158.33C9.66 140.82 0.0200043 117.53 0.0200043 92.75C0.0200043 67.97 9.66 44.67 27.16 27.16C44.67 9.66 67.96 0.0200043 92.75 0.0200043C117.54 0.0200043 140.83 9.66 158.33 27.16C175.83 44.66 185.47 67.96 185.47 92.74C185.47 117.52 175.83 140.82 158.33 158.32C140.83 175.82 117.53 185.46 92.75 185.46V185.47ZM92.75 14.59C49.65 14.59 14.59 49.66 14.59 92.76C14.59 135.86 49.65 170.92 92.75 170.92C135.85 170.92 170.91 135.86 170.91 92.76C170.91 49.66 135.84 14.59 92.75 14.59Z" fill="#2D6CEA"/>
<path d="M92.75 156.99C57.32 156.99 28.5 128.17 28.5 92.74C28.5 57.31 57.32 28.5 92.75 28.5C128.18 28.5 157 57.32 157 92.75C157 128.18 128.18 157 92.75 157V156.99ZM92.75 43.06C65.36 43.06 43.07 65.35 43.07 92.74C43.07 120.13 65.36 142.42 92.75 142.42C120.14 142.42 142.43 120.13 142.43 92.74C142.43 65.35 120.14 43.06 92.75 43.06Z" fill="#2D6CEA"/>
<path d="M92.75 128.51C73.03 128.51 56.99 112.47 56.99 92.75C56.99 73.03 73.03 56.99 92.75 56.99C112.47 56.99 128.51 73.03 128.51 92.75C128.51 112.47 112.47 128.51 92.75 128.51ZM92.75 71.55C81.06 71.55 71.55 81.06 71.55 92.75C71.55 104.44 81.06 113.95 92.75 113.95C104.44 113.95 113.95 104.44 113.95 92.75C113.95 81.06 104.44 71.55 92.75 71.55Z" fill="#2D6CEA"/>
</g>
<path d="M32.33 160.45C30.47 160.45 28.6 159.74 27.18 158.32C9.65 140.79 0 117.5 0 92.75C0 68 9.65 44.71 27.18 27.18C44.71 9.65 67.99 0 92.75 0C117.51 0 140.79 9.65 158.32 27.18C175.85 44.71 185.5 67.99 185.5 92.75C185.5 117.51 175.85 140.79 158.32 158.32C155.48 161.16 150.86 161.16 148.02 158.32C145.18 155.48 145.18 150.86 148.02 148.02C162.8 133.24 170.93 113.62 170.93 92.75C170.93 71.88 162.79 52.26 148.02 37.48C133.24 22.7 113.62 14.57 92.75 14.57C71.88 14.57 52.26 22.71 37.48 37.48C22.7 52.26 14.57 71.88 14.57 92.75C14.57 113.62 22.71 133.24 37.48 148.02C40.32 150.86 40.32 155.48 37.48 158.32C36.8039 158.996 36.001 159.533 35.1172 159.898C34.2335 160.264 33.2863 160.451 32.33 160.45Z" fill="url(#paint0_linear_2_4)"/>
<path d="M133.03 140.31C131.17 140.31 129.3 139.6 127.88 138.18C125.04 135.34 125.04 130.72 127.88 127.88C147.25 108.51 147.25 76.99 127.88 57.62C108.51 38.25 76.99 38.25 57.62 57.62C48.23 67.01 43.06 79.49 43.06 92.75C43.06 106.01 48.23 118.49 57.62 127.88C60.46 130.72 60.46 135.34 57.62 138.18C54.78 141.02 50.16 141.02 47.32 138.18C22.27 113.13 22.27 72.37 47.32 47.32C72.37 22.27 113.13 22.27 138.18 47.32C163.23 72.37 163.23 113.13 138.18 138.18C137.504 138.856 136.701 139.393 135.817 139.758C134.934 140.124 133.986 140.311 133.03 140.31Z" fill="url(#paint1_linear_2_4)"/>
<path d="M112.89 120.17C111.03 120.17 109.16 119.46 107.74 118.04C104.9 115.2 104.9 110.58 107.74 107.74C111.75 103.73 113.96 98.41 113.96 92.75C113.96 89.51 113.24 86.38 111.86 83.54L97.7 97.7C96.33 99.07 94.48 99.83 92.55 99.83C90.62 99.83 88.77 99.06 87.4 97.7L73.52 83.82C69.89 91.66 71.3 101.28 77.76 107.73C80.6 110.57 80.6 115.19 77.76 118.03C74.92 120.87 70.3 120.87 67.46 118.03C53.52 104.09 53.52 81.4 67.46 67.45C68.83 66.08 70.68 65.32 72.61 65.32C74.54 65.32 76.39 66.09 77.76 67.45L92.55 82.24L107.53 67.26C108.866 65.9269 110.667 65.1634 112.554 65.1298C114.441 65.0962 116.267 65.7952 117.65 67.08C117.78 67.2 117.91 67.33 118.04 67.45C131.98 81.39 131.98 104.08 118.04 118.03C117.364 118.706 116.561 119.243 115.677 119.608C114.794 119.974 113.846 120.161 112.89 120.16V120.17Z" fill="url(#paint2_linear_2_4)"/>
<path d="M235.33 111.15L258.87 50.07C259.78 47.55 261.69 46.25 264.5 46.25H271.64C274.46 46.25 276.27 47.56 277.27 50.07L301.12 111.15C302.33 114.47 300.92 116.68 297.3 116.68H290.76C288.04 116.68 286.13 115.47 285.13 112.86L281.61 103.6H254.44L251.02 112.76C250.01 115.38 248.2 116.68 245.49 116.68H239.15C235.53 116.68 234.12 114.47 235.33 111.15ZM278.4 91.03L268.14 62.66L257.57 91.03H278.4ZM309.79 134.39V69.8C309.79 66.68 311.5 64.97 314.62 64.97H320.56C323.68 64.97 325.39 66.68 325.39 69.8V72.21C329.11 66.47 335.15 63.86 341.99 63.86C356.48 63.86 366.84 75.63 366.84 90.83C366.84 106.03 356.48 117.8 341.99 117.8C335.15 117.8 329.11 115.18 325.39 109.35V134.4C325.39 137.52 323.68 139.23 320.56 139.23H314.62C311.5 139.23 309.79 137.52 309.79 134.4V134.39ZM351.25 90.81C351.25 82.86 346.52 76.32 338.37 76.32C330.22 76.32 325.19 82.56 325.19 90.81C325.19 99.06 330.42 105.3 338.37 105.3C346.32 105.3 351.25 98.86 351.25 90.81ZM376.2 134.39V69.8C376.2 66.68 377.91 64.97 381.03 64.97H386.97C390.09 64.97 391.8 66.68 391.8 69.8V72.21C395.52 66.47 401.56 63.86 408.4 63.86C422.89 63.86 433.25 75.63 433.25 90.83C433.25 106.03 422.89 117.8 408.4 117.8C401.56 117.8 395.52 115.18 391.8 109.35V134.4C391.8 137.52 390.09 139.23 386.97 139.23H381.03C377.91 139.23 376.2 137.52 376.2 134.4V134.39ZM417.66 90.81C417.66 82.86 412.93 76.32 404.78 76.32C396.63 76.32 391.6 82.56 391.6 90.81C391.6 99.06 396.83 105.3 404.78 105.3C412.73 105.3 417.66 98.86 417.66 90.81ZM466.15 111.55L471.78 50.88C471.98 47.86 473.79 46.25 476.81 46.25H484.05C486.87 46.25 488.58 47.46 489.68 50.07L507.59 93.84L525.6 50.07C526.61 47.45 528.42 46.25 531.13 46.25H538.48C541.5 46.25 543.21 47.86 543.51 50.88L549.14 111.55C549.44 114.87 547.73 116.68 544.51 116.68H538.37C535.25 116.68 533.54 115.07 533.24 112.05L530.02 73.61L514.52 112.05C513.51 114.67 511.7 115.87 508.99 115.87H506.27C503.55 115.87 501.74 114.66 500.74 112.05L485.25 73.61L481.93 112.05C481.73 115.07 479.92 116.68 476.9 116.68H470.76C467.54 116.68 465.73 114.87 466.13 111.55H466.15ZM557.41 90.82C557.41 75.63 567.77 63.85 582.26 63.85C589.1 63.85 595.14 66.47 598.86 72.3V69.78C598.86 66.66 600.57 64.95 603.69 64.95H609.63C612.75 64.95 614.46 66.66 614.46 69.78V111.84C614.46 114.96 612.75 116.67 609.63 116.67H603.69C600.57 116.67 598.86 114.96 598.86 111.84V109.43C595.14 115.17 589.1 117.78 582.26 117.78C567.77 117.78 557.41 106.11 557.41 90.81V90.82ZM599.07 90.83C599.07 82.58 593.84 76.34 585.89 76.34C577.94 76.34 573.01 82.88 573.01 90.83C573.01 98.78 577.74 105.32 585.89 105.32C594.04 105.32 599.07 99.08 599.07 90.83ZM624.52 107.43C623.01 104.41 624.62 102.2 627.74 101.39L630.86 100.69C633.58 99.99 634.78 101.29 636.9 103.41C638.71 105.42 641.43 106.43 644.65 106.43C648.57 106.43 651.29 104.62 651.29 101.9C651.29 99.69 649.78 98.58 646.46 97.37L640.12 95.16C634.79 93.45 625.53 89.53 625.53 80.17C625.53 70.81 633.58 63.87 644.75 63.87C651.39 63.87 657.43 65.98 661.25 71.72C663.26 74.64 661.75 77.25 658.43 78.06L655.61 78.76C652.99 79.46 651.59 78.56 649.77 76.85C648.36 75.44 646.55 74.94 644.74 74.94C641.52 74.94 639.51 76.95 639.51 79.37C639.51 81.58 641.52 82.69 644.24 83.6L650.68 86.01C661.35 89.53 665.17 95.27 665.37 101.61C665.37 112.48 655.71 117.81 644.54 117.81C635.38 117.81 627.94 114.39 624.52 107.45V107.43ZM677.45 99.48V76.54H672.32C670.71 76.54 669.7 75.63 669.7 74.02V67.48C669.7 65.87 670.71 64.96 672.32 64.96H678.66L680.37 54.5C680.77 52.39 682.18 51.28 684.29 51.28H689.22C691.53 51.28 692.74 52.59 692.74 54.8V64.96H704.41C706.02 64.96 706.93 65.87 706.93 67.48V74.02C706.93 75.63 706.02 76.54 704.41 76.54H692.74V99.98C692.74 103.8 694.65 105.31 696.97 105.31C699.59 105.31 701.3 103.3 701.3 100.58C701.3 100.08 701.3 99.47 701.2 98.77C701 96.96 701.6 96.05 703.31 96.05H709.45C710.76 96.05 711.86 96.55 712.27 98.06C712.67 99.57 712.87 101.18 712.87 101.98C712.87 113.15 704.92 117.78 695.56 117.78C686.81 117.78 677.45 113.75 677.45 99.47V99.48ZM716.89 91.03C716.89 76.44 727.86 63.86 745.26 63.86C759.95 63.86 772.03 72.71 772.73 89.22C772.83 92.14 770.82 93.45 767.8 93.45H731.78C731.58 99.59 737.72 105.52 747.68 105.52C751.4 105.52 755.23 104.61 759.15 102.4C761.87 100.89 764.08 101.09 765.99 103.41L767.1 104.82C769.11 107.23 768.91 109.95 766.19 111.96C760.25 116.29 753.31 117.8 746.67 117.8C728.16 117.8 716.89 105.83 716.89 91.03ZM758.14 84.79C756.73 77.85 750.79 75.63 745.46 75.63C740.13 75.63 733.89 78.04 732.18 84.79H758.14ZM781.58 111.85V69.79C781.58 66.67 783.29 64.96 786.41 64.96H791.94C795.06 64.96 796.77 66.67 796.77 69.79V76.23C798.48 66.77 805.73 63.85 810.15 63.85L811.86 63.95C814.27 64.15 814.78 66.06 814.78 68.08V75.12C814.78 77.94 813.37 79.14 811.26 78.84C810.35 78.74 809.55 78.64 808.74 78.64C802.7 78.64 797.17 82.56 797.17 95.54V111.84C797.17 114.96 795.46 116.67 792.34 116.67H786.4C783.28 116.67 781.57 114.96 781.57 111.84H781.58V111.85ZM819.42 107.43C817.91 104.41 819.52 102.2 822.64 101.39L825.76 100.69C828.48 99.99 829.68 101.29 831.8 103.41C833.61 105.42 836.33 106.43 839.55 106.43C843.47 106.43 846.19 104.62 846.19 101.9C846.19 99.69 844.68 98.58 841.36 97.37L835.02 95.16C829.69 93.45 820.43 89.53 820.43 80.17C820.43 70.81 828.48 63.87 839.65 63.87C846.29 63.87 852.33 65.98 856.15 71.72C858.16 74.64 856.65 77.25 853.33 78.06L850.51 78.76C847.89 79.46 846.49 78.56 844.67 76.85C843.26 75.44 841.45 74.94 839.64 74.94C836.42 74.94 834.41 76.95 834.41 79.37C834.41 81.58 836.42 82.69 839.14 83.6L845.58 86.01C856.25 89.53 860.07 95.27 860.27 101.61C860.27 112.48 850.61 117.81 839.44 117.81C830.28 117.81 822.84 114.39 819.42 107.45V107.43Z" fill="#E1E7F6"/>
</g>
<defs>
<linearGradient id="paint0_linear_2_4" x1="158.315" y1="27.1768" x2="27.1752" y2="158.317" gradientUnits="userSpaceOnUse">
<stop stop-color="#3888FC"/>
<stop offset="1" stop-color="#1D42CF"/>
</linearGradient>
<linearGradient id="paint1_linear_2_4" x1="138.177" y1="47.3152" x2="47.3136" y2="138.178" gradientUnits="userSpaceOnUse">
<stop stop-color="#3888FC"/>
<stop offset="1" stop-color="#1D42CF"/>
</linearGradient>
<linearGradient id="paint2_linear_2_4" x1="57" y1="92.65" x2="128.49" y2="92.65" gradientUnits="userSpaceOnUse">
<stop stop-color="#3888FC"/>
<stop offset="1" stop-color="#1D42CF"/>
</linearGradient>
<clipPath id="clip0_2_4">
<rect width="860.27" height="185.47" fill="white"/>
</clipPath>
</defs>
</svg>
