<svg width="186" height="186" viewBox="0 0 186 186" fill="none" xmlns="http://www.w3.org/2000/svg">
<g clip-path="url(#clip0_3_15)">
<g opacity="0.1">
<path d="M92.75 185.47C67.96 185.47 44.67 175.83 27.17 158.33C9.66002 140.82 0.0200195 117.53 0.0200195 92.75C0.0200195 67.97 9.66002 44.67 27.16 27.16C44.67 9.66 67.96 0.0200043 92.75 0.0200043C117.54 0.0200043 140.83 9.66 158.33 27.16C175.83 44.66 185.47 67.96 185.47 92.74C185.47 117.52 175.83 140.82 158.33 158.32C140.83 175.82 117.53 185.46 92.75 185.46V185.47ZM92.75 14.59C49.65 14.59 14.59 49.66 14.59 92.76C14.59 135.86 49.65 170.92 92.75 170.92C135.85 170.92 170.91 135.86 170.91 92.76C170.91 49.66 135.84 14.59 92.75 14.59Z" fill="#2D6CEA"/>
<path d="M92.75 156.99C57.32 156.99 28.5 128.17 28.5 92.74C28.5 57.31 57.32 28.5 92.75 28.5C128.18 28.5 157 57.32 157 92.75C157 128.18 128.18 157 92.75 157V156.99ZM92.75 43.06C65.36 43.06 43.07 65.35 43.07 92.74C43.07 120.13 65.36 142.42 92.75 142.42C120.14 142.42 142.43 120.13 142.43 92.74C142.43 65.35 120.14 43.06 92.75 43.06Z" fill="#2D6CEA"/>
<path d="M92.75 128.51C73.03 128.51 56.99 112.47 56.99 92.75C56.99 73.03 73.03 56.99 92.75 56.99C112.47 56.99 128.51 73.03 128.51 92.75C128.51 112.47 112.47 128.51 92.75 128.51ZM92.75 71.55C81.06 71.55 71.55 81.06 71.55 92.75C71.55 104.44 81.06 113.95 92.75 113.95C104.44 113.95 113.95 104.44 113.95 92.75C113.95 81.06 104.44 71.55 92.75 71.55Z" fill="#2D6CEA"/>
</g>
<path d="M32.33 160.45C30.47 160.45 28.6 159.74 27.18 158.32C9.65 140.79 0 117.5 0 92.75C0 68 9.65 44.71 27.18 27.18C44.71 9.65 67.99 0 92.75 0C117.51 0 140.79 9.65 158.32 27.18C175.85 44.71 185.5 67.99 185.5 92.75C185.5 117.51 175.85 140.79 158.32 158.32C155.48 161.16 150.86 161.16 148.02 158.32C145.18 155.48 145.18 150.86 148.02 148.02C162.8 133.24 170.93 113.62 170.93 92.75C170.93 71.88 162.79 52.26 148.02 37.48C133.24 22.7 113.62 14.57 92.75 14.57C71.88 14.57 52.26 22.71 37.48 37.48C22.7 52.26 14.57 71.88 14.57 92.75C14.57 113.62 22.71 133.24 37.48 148.02C40.32 150.86 40.32 155.48 37.48 158.32C36.8039 158.996 36.001 159.533 35.1172 159.898C34.2335 160.264 33.2863 160.451 32.33 160.45Z" fill="url(#paint0_linear_3_15)"/>
<path d="M133.03 140.31C131.17 140.31 129.3 139.6 127.88 138.18C125.04 135.34 125.04 130.72 127.88 127.88C147.25 108.51 147.25 76.99 127.88 57.62C108.51 38.25 76.99 38.25 57.62 57.62C48.23 67.01 43.06 79.49 43.06 92.75C43.06 106.01 48.23 118.49 57.62 127.88C60.46 130.72 60.46 135.34 57.62 138.18C54.78 141.02 50.16 141.02 47.32 138.18C22.27 113.13 22.27 72.37 47.32 47.32C72.37 22.27 113.13 22.27 138.18 47.32C163.23 72.37 163.23 113.13 138.18 138.18C137.504 138.856 136.701 139.393 135.817 139.758C134.933 140.124 133.986 140.311 133.03 140.31Z" fill="url(#paint1_linear_3_15)"/>
<path d="M112.89 120.17C111.03 120.17 109.16 119.46 107.74 118.04C104.9 115.2 104.9 110.58 107.74 107.74C111.75 103.73 113.96 98.41 113.96 92.75C113.96 89.51 113.24 86.38 111.86 83.54L97.7 97.7C96.33 99.07 94.48 99.83 92.55 99.83C90.62 99.83 88.77 99.06 87.4 97.7L73.52 83.82C69.89 91.66 71.3 101.28 77.76 107.73C80.6 110.57 80.6 115.19 77.76 118.03C74.92 120.87 70.3 120.87 67.46 118.03C53.52 104.09 53.52 81.4 67.46 67.45C68.83 66.08 70.68 65.32 72.61 65.32C74.54 65.32 76.39 66.09 77.76 67.45L92.55 82.24L107.53 67.26C108.866 65.9269 110.667 65.1634 112.554 65.1298C114.441 65.0962 116.267 65.7952 117.65 67.08C117.78 67.2 117.91 67.33 118.04 67.45C131.98 81.39 131.98 104.08 118.04 118.03C117.364 118.706 116.561 119.243 115.677 119.608C114.794 119.974 113.846 120.161 112.89 120.16V120.17Z" fill="url(#paint2_linear_3_15)"/>
</g>
<defs>
<linearGradient id="paint0_linear_3_15" x1="158.315" y1="27.1768" x2="27.1752" y2="158.317" gradientUnits="userSpaceOnUse">
<stop stop-color="#3888FC"/>
<stop offset="1" stop-color="#1D42CF"/>
</linearGradient>
<linearGradient id="paint1_linear_3_15" x1="138.177" y1="47.3152" x2="47.3136" y2="138.178" gradientUnits="userSpaceOnUse">
<stop stop-color="#3888FC"/>
<stop offset="1" stop-color="#1D42CF"/>
</linearGradient>
<linearGradient id="paint2_linear_3_15" x1="57" y1="92.65" x2="128.49" y2="92.65" gradientUnits="userSpaceOnUse">
<stop stop-color="#3888FC"/>
<stop offset="1" stop-color="#1D42CF"/>
</linearGradient>
<clipPath id="clip0_3_15">
<rect width="186" height="186" fill="white"/>
</clipPath>
</defs>
</svg>
