<?xml version="1.0" encoding="UTF-8"?><svg id="Layer_2" xmlns="http://www.w3.org/2000/svg" viewBox="0 0 2680 2720.141"><g id="Layer_1-2"><circle cx="1340" cy="1340" r="1340" fill="#02daff"/><path d="m1580.385,2679.843c-56.734-1.904-113.337-22.33-164.099-65.129h-177.773c-43.838,36.957-92.046,57.253-140.904,63.311-219.88,27.35-453.521-232.949-366.972-559.415,9.002-33.971,21.421-68.634,37.736-103.773h1118.052c19.777,42.626,33.884,84.602,43.015,125.411,68.331,304.915-141.249,546.606-349.055,539.595Z" fill="#a9b0bb"/><g fill="none" opacity=".3"><path d="m1580.385,2679.843c-56.734-1.904-113.337-22.33-164.099-65.129h-177.773c-43.838,36.957-92.046,57.253-140.904,63.311-203.219,25.272-418.209-195.17-381.252-486.497,29.427,224.078,209.538,378.18,381.252,356.802,48.858-6.058,97.065-26.354,140.904-63.311h177.773c50.761,42.799,107.365,63.225,164.099,65.129,164.445,5.539,330.058-144.668,358.013-358.749,35.658,280.335-161.978,495.065-358.013,488.444Z" fill="#000072"/></g><path d="m1712.547,2346.453c-21.767,22.243-52.926,35.529-98.537,35.096-27.133-.26-53.228-9.347-76.078-23.931-67.725-43.275-120.521,49.68-48.944,83.997l-61.753,181.885c-3.678-2.813-7.313-5.756-10.948-8.785h-177.773c-3.636,3.073-7.314,6.015-10.992,8.828h-3.765l-57.945-181.928c71.577-34.317,18.738-127.271-48.944-83.997-22.849,14.584-48.944,23.671-76.077,23.931-30.638.303-54.786-5.626-73.913-16.272,1.298-150.553,77.808-281.503,190.583-350.44,53.964-33.062,116.236-51.887,182.533-51.887s128.57,18.825,182.533,51.887c108.058,66.038,182.837,189.025,190.021,331.616Z" fill="#e6eaed"/><path d="m1488.988,2441.614l-9.824,28.994c-24.017-16.012-28.604-40.029-20.944-59.2,4.673,11.598,14.496,22.416,30.768,30.206Z" fill="#fff"/><g fill="none" opacity=".6"><path d="m1196.58,2411.408c-10.3-25.835-42.799-42.799-79.713-19.171-22.849,14.584-48.944,23.671-76.077,23.931-30.638.303-54.786-5.626-73.913-16.271-45.179-20.772-72.269-73.308-73.351-146.659,0,0,19.949,87.156,74.259,121.213.217-2.813.433-5.582.649-8.352,18.868,10.126,42.539,15.752,72.356,15.449,27.133-.26,53.228-9.347,76.077-23.931,52.32-33.452,95.725,14.454,79.713,53.791Z" fill="#fff"/></g><g fill="none" opacity=".6"><path d="m1712.547,2381.073c-21.767,22.243-52.926,35.529-98.537,35.096-27.133-.26-53.228-9.347-76.078-23.931-36.957-23.628-69.457-6.665-79.712,19.171-16.055-39.337,27.393-87.242,79.712-53.791,22.849,14.584,48.944,23.671,76.078,23.931,30.292.303,54.223-5.453,73.221-15.882q.043,0,.087-.043c1.774-.995,3.462-1.991,5.106-3.029.173-.087.347-.216.52-.303,6.015-3.462,11.641-7.919,16.834-13.112v-.043c32.154-31.894,48.598-89.752,48.598-89.752,2.9,75.731-45.827,121.689-45.827,121.689Z" fill="#fff"/></g><g fill="none" opacity=".6"><path d="m1709.777,2349.136v.043c-5.193,5.193-10.819,9.65-16.834,13.112,6.145-3.895,11.727-8.265,16.834-13.156Z" fill="#fff"/></g><path d="m1065.529,2695.143c-3.018,0-6.033-.049-9.062-.147-64.861-2.114-129.517-26.443-186.977-70.356-78.389-59.905-134.937-149.592-159.231-252.534-27.422-116.201-12.078-241.948,44.375-363.645,3.52-7.588,12.524-10.886,20.115-7.366,7.588,3.521,10.886,12.524,7.366,20.115-117.305,252.876-27.402,477.59,105.769,579.363,111.223,84.995,241.838,85.981,340.872,2.556,6.399-5.381,15.959-4.575,21.343,1.826,5.388,6.399,4.57,15.952-1.826,21.343-53.596,45.146-116.606,68.843-182.742,68.845Z" fill="#000072"/><g fill="none" opacity=".3"><path d="m1929.441,2140.247c-.043.087-.087.087-.13.13-148.605,110.265-353.426,170.027-585.423,170.027-109.615,0-213.172-13.329-307.598-39.034-82.396-22.416-157.781-54.267-224.251-94.859q-.043-.043-.043-.087c-28.864-17.613-56.041-36.913-81.357-57.815,9.002-33.971,21.421-68.634,37.736-103.773h1118.052c19.777,42.626,33.884,84.602,43.015,125.411Z" fill="#000072"/></g><rect x="1067.361" y="2441.613" width="517.135" height="173.1" rx="84.358" ry="84.358" fill="#f21ca0"/><g fill="none" opacity=".3"><path d="m1584.496,2525.957v4.414c0,46.564-37.779,84.343-84.343,84.343h-348.45c-46.564,0-84.343-37.779-84.343-84.343v-4.414c0-8.439,1.255-16.617,3.592-24.277,10.429,34.707,42.668,60.022,80.751,60.022h348.45c38.082,0,70.322-25.316,80.751-60.022,2.337,7.66,3.592,15.838,3.592,24.277Z" fill="#000072"/></g><g fill="none" opacity=".6"><path d="m1584.496,2525.957v4.414c0,4.89-.433,9.65-1.212,14.324-6.794-39.813-41.414-70.105-83.131-70.105h-348.45c-41.717,0-76.337,30.292-83.131,70.105-.779-4.674-1.212-9.434-1.212-14.324v-4.414c0-46.564,37.779-84.343,84.343-84.343h348.45c46.564,0,84.343,37.779,84.343,84.343Z" fill="#fff"/></g><path d="m1165.822,2456.762c-5.645,0-11.065-3.169-13.667-8.601-3.616-7.541-.435-16.589,7.109-20.205,15.996-7.671,25.071-19.248,25.552-32.605.43-11.953-6.116-23.577-16.675-29.609-12.214-6.98-27.537-5.339-43.127,4.624-26.543,16.963-55.62,26.069-84.087,26.338-.752.005-1.504.01-2.248.01-114.48,0-144.138-82.588-157.158-154.719-1.487-8.233,3.982-16.111,12.214-17.595,8.249-1.482,16.113,3.984,17.595,12.214,16.616,92.043,53.552,129.807,127.266,129.807.681,0,1.36-.002,2.048-.01,22.776-.212,46.309-7.671,68.057-21.57,25.173-16.089,52.317-18.057,74.47-5.4,20.22,11.553,32.749,33.928,31.916,57.002-.891,24.795-16.465,46.238-42.727,58.828-2.112,1.013-4.341,1.492-6.538,1.492Z" fill="#000072"/><path d="m1500.138,2629.86h-348.42c-54.866,0-99.504-44.639-99.504-99.507v-4.382c0-54.866,44.639-99.504,99.504-99.504h348.42c54.866,0,99.504,44.639,99.504,99.504v4.382c0,54.868-44.639,99.507-99.504,99.507Zm-348.42-173.101c-38.164,0-69.211,31.047-69.211,69.211v4.382c0,38.164,31.047,69.214,69.211,69.214h348.42c38.164,0,69.211-31.05,69.211-69.214v-4.382c0-38.164-31.047-69.211-69.211-69.211h-348.42Z" fill="#000072"/><path d="m1183.121,2568.146h-87.632c-15.535,0-28.129-12.594-28.129-28.129h0c0-15.535,12.594-28.129,28.129-28.129h87.632c15.535,0,28.129,12.594,28.129,28.129h0c0,15.535-12.594,28.129-28.129,28.129Z" fill="#000072"/><path d="m1556.368,2568.146h-87.632c-15.535,0-28.129-12.594-28.129-28.129h0c0-15.535,12.594-28.129,28.129-28.129h87.632c15.535,0,28.129,12.594,28.129,28.129h0c0,15.535-12.594,28.129-28.129,28.129Z" fill="#000072"/><path d="m1257.337,2415.287h38.012c4.935,0,8.942,4.007,8.942,8.942v11.686c0,4.936-4.007,8.943-8.943,8.943h-38.012c-4.935,0-8.942-4.007-8.942-8.942v-11.686c0-4.935,4.007-8.942,8.942-8.942Z" fill="#000072"/><rect x="1347.566" y="2415.287" width="55.897" height="29.571" rx="8.942" ry="8.942" fill="#000072"/><path d="m1156.074,2396.715h48.144c9.255,0,16.769,7.514,16.769,16.769v28.129h-81.682v-28.129c0-9.255,7.514-16.769,16.769-16.769Z" fill="#000072"/><path d="m1589.25,2695.143c-66.14,0-129.143-23.696-182.742-68.845-6.397-5.391-7.214-14.944-1.826-21.343,5.388-6.396,14.949-7.209,21.343-1.826,99.031,83.428,229.648,82.439,340.872-2.556,133.171-101.772,223.074-326.487,105.769-579.363-3.521-7.59-.222-16.594,7.366-20.115,7.585-3.52,16.594-.222,20.115,7.366,56.453,121.697,71.797,247.444,44.375,363.645-24.294,102.942-80.842,192.629-159.231,252.534-57.461,43.914-122.117,68.242-186.978,70.356-3.025.098-6.05.147-9.062.147Z" fill="#000072"/><path d="m1488.959,2456.762c-2.197,0-4.426-.479-6.538-1.492-26.262-12.59-41.836-34.033-42.727-58.828-.833-23.076,11.697-45.449,31.916-57.002,22.151-12.651,49.292-10.688,74.468,5.398,21.751,13.901,45.286,21.36,68.059,21.572,75.088.803,112.544-36.904,129.314-129.797,1.484-8.232,9.348-13.718,17.595-12.214,8.232,1.484,13.701,9.363,12.214,17.595-13.103,72.6-42.886,155.754-159.407,154.709-28.464-.269-57.542-9.375-84.089-26.338-15.586-9.963-30.901-11.602-43.125-4.624-10.559,6.033-17.104,17.656-16.675,29.609.481,13.357,9.556,24.934,25.552,32.605,7.544,3.616,10.725,12.663,7.109,20.205-2.603,5.432-8.022,8.601-13.667,8.601Z" fill="#000072"/><path d="m1433.793,2396.715h81.681v28.129c0,9.255-7.514,16.769-16.769,16.769h-48.143c-9.255,0-16.769-7.514-16.769-16.769v-28.129h0Z" transform="translate(2949.268 4838.328) rotate(180)" fill="#000072"/><path d="m2355.651,1547.308h-155.79c0-425.652-385.363-771.982-859.094-771.982s-859.094,346.329-859.094,771.982h-155.79c0-512.375,454.387-927.772,1014.884-927.772s1014.884,415.396,1014.884,927.772Z" fill="#00a4ff"/><g fill="none" opacity=".6"><path d="m2355.655,1551.261h-.909c-22.676-494.027-467.975-888.175-1013.975-888.175s-991.299,394.148-1013.975,888.175h-.909c0-512.375,454.387-927.771,1014.884-927.771s1014.884,415.396,1014.884,927.771Z" fill="#fff"/></g><circle cx="1325.928" cy="2528.163" r="29.211" fill="#000072"/><path d="m2370.797,1562.455h-186.084v-15.146c0-417.322-378.594-756.836-843.948-756.836s-843.948,339.514-843.948,756.836v15.146h-186.082v-15.146c0-519.927,462.07-942.92,1030.029-942.92s1030.032,422.993,1030.032,942.92v15.146Zm-155.95-30.293h125.522c-8.909-496.255-453.899-897.481-999.604-897.481s-990.693,401.226-999.602,897.481h125.52c8.997-427.063,397.644-771.982,874.082-771.982s865.085,344.919,874.082,771.982Z" fill="#000072"/><path d="m2177.925,1509.212c0,213.995-93.82,383.632-248.615,498.441-148.605,110.265-353.426,170.027-585.423,170.027-109.615,0-213.172-13.329-307.598-39.034-82.396-22.416-157.781-54.267-224.251-94.859q-.043-.043-.043-.087c-89.666-54.743-162.93-125.454-214.817-210.532-56.128-91.873-87.329-200.536-87.329-323.956,0-100.225,20.556-195.905,58.335-283.494v-490.868c0-121.689,122.468-195.559,216.288-130.474l273.195,189.587c88.584-28.605,184.827-44.184,286.22-44.184,69.846,0,137.268,7.4,201.358,21.378,24.84,5.366,49.161,11.771,72.962,19.084l278.388-189.458c93.864-63.874,215.163,10.083,215.163,131.166v476.327c32.542,70.192,53.877,145.923,62.185,225.203,2.64,24.883,3.981,50.156,3.981,75.731Z" fill="#a9b0bb"/><g fill="none" opacity=".3"><path d="m2177.925,1509.212c0,213.995-93.82,383.632-248.615,498.441-148.605,110.265-353.426,170.027-585.423,170.027-109.615,0-213.172-13.329-307.598-39.034-82.396-22.416-157.781-54.267-224.251-94.859q-.043-.043-.043-.087c-89.666-54.743-162.93-125.454-214.817-210.532-56.128-91.873-87.329-200.536-87.329-323.956,0-39.337,3.16-77.938,9.305-115.63,13.112,77.549,39.769,147.957,78.024,210.576,51.887,85.079,125.151,155.79,214.817,210.533q0,.043.043.087c66.47,40.592,141.855,72.442,224.251,94.859,94.426,25.705,197.983,39.034,307.598,39.034,231.997,0,436.818-59.763,585.423-170.027,126.363-93.733,212.091-223.991,239.311-385.06,2.164,13.199,3.938,26.484,5.323,39.899,2.64,24.883,3.981,50.156,3.981,75.731Z" fill="#000072"/></g><path d="m2173.944,1433.481c-257.573,50.026-516.486-69.759-615.759-302.362-50.026-117.145-51.367-243.767-12.939-359.961,24.84,5.366,49.161,11.771,72.962,19.084l278.388-189.458c93.864-63.874,215.163,10.083,215.163,131.166v476.327c32.542,70.192,53.877,145.923,62.185,225.203Z" fill="#e6eaed"/><g fill="none" opacity=".6"><path d="m2111.758,731.951v80.275c-3.159-.779-6.449-1.341-9.737-1.774v-26.917c0-121.083-121.3-195.04-215.163-131.166l-278.388,189.458c-23.801-7.314-48.122-13.718-72.962-19.084-64.09-13.978-131.512-21.378-201.358-21.378-94.964,0-185.41,13.666-269.276,38.9-10.882,3.274-22.66,1.317-31.996-5.162l-258.143-179.142c-77.895-54.05-175.566-12.29-206.465,73.135,3.809-118.227,123.853-188.765,216.202-124.718l273.195,189.587c88.584-28.605,184.827-44.184,286.22-44.184,69.846,0,137.268,7.4,201.358,21.378,24.84,5.366,49.161,11.771,72.962,19.084l278.388-189.458c93.864-63.874,215.163,10.083,215.163,131.166Z" fill="#fff"/></g><path d="m1343.881,2192.829c-238.245,0-452.708-63.955-603.879-180.088-160.476-123.276-245.3-297.395-245.3-503.528,0-99.373,19.631-195.781,58.357-286.604v-487.756c0-65.73,33.899-124.302,88.467-152.859,48.987-25.63,105.649-21.924,151.572,9.941l267.07,185.337c90.212-28.296,185.618-42.637,283.713-42.637,93.709,0,185.11,13.123,271.804,39.014l272.38-185.386c45.933-31.257,102.388-34.57,151.011-8.84,54.187,28.667,87.849,87.114,87.849,152.529v473.01c43.887,95.898,66.138,198.245,66.138,304.251,0,206.133-84.824,380.252-245.3,503.528-151.172,116.133-365.635,180.088-603.882,180.088ZM709.34,595.224c-18.145,0-36.387,4.514-53.767,13.611-44.548,23.31-72.222,71.599-72.222,126.018v493.994l-1.24,2.871c-37.9,87.856-57.117,181.218-57.117,277.495,0,390.774,329.085,653.323,818.887,653.323s818.889-262.549,818.889-653.323c0-102.703-21.78-201.809-64.736-294.568l-1.401-3.027v-479.666c0-54.163-27.483-102.349-71.721-125.754-39.099-20.686-82.764-18.096-119.802,7.109l-284.382,193.552-6.956-2.139c-85.879-26.404-176.682-39.792-269.89-39.792-97.529,0-192.263,14.619-281.57,43.452l-7.131,2.302-279.351-193.86c-20.693-14.355-43.511-21.599-66.489-21.599Z" fill="#000072"/><path d="m897.884,825.413l-137.596-97.608c-31.783-22.546-73.683,2.731-73.282,44.221.722,74.6,1.402,173.729.609,227.462-.229,15.51,15.767,24.672,27.278,15.646l183.958-144.253c14.397-11.29,13.894-34.927-.967-45.469Z" fill="#f25fc1"/><g fill="none" opacity=".6"><path d="m911.181,914.139l-183.961,144.279c-11.511,9.001-27.479-.13-27.264-15.666.13-7.443.217-15.796.259-24.797,4.717,1.471,10.04.779,14.671-2.813l183.962-144.278c2.294-1.818,4.198-3.895,5.669-6.232l5.712,4.068c14.844,10.516,15.363,34.187.952,45.439Z" fill="#fff"/></g><g fill="none" opacity=".6"><path d="m1756.053,904.315l183.961,144.279c11.511,9.001,27.479-.13,27.263-15.666-.13-7.443-.217-15.795-.259-24.796-4.717,1.471-10.04.779-14.671-2.813l-183.962-144.279c-2.294-1.818-4.197-3.895-5.669-6.232l-5.712,4.068c-14.844,10.516-15.363,34.187-.952,45.439Z" fill="#fff"/></g><path d="m1992.253,987.754c-.555-55.546.081-146.269.753-215.727.401-41.491-41.499-66.767-73.282-44.221l-140.542,99.697c-13.447,9.539-13.902,30.926-.875,41.142l178.02,139.596c15.122,11.858,36.13-.109,35.926-20.486Z" fill="#f25fc1"/><g fill="none" opacity=".3"><path d="m1993.012,772.024c-.13,12.723-.259,26.138-.389,39.943-14.973-14.887-38.255-18.997-57.772-5.193l-123.593,87.718-32.932-25.835c-13.026-10.213-12.593-31.634.865-41.154l140.514-99.706c31.808-22.546,73.697,2.726,73.308,44.227Z" fill="#000072"/></g><g fill="none" opacity=".3"><path d="m685.154,772.024c.13,12.723.259,26.138.389,39.943,14.973-14.887,38.255-18.997,57.772-5.193l123.593,87.718,32.932-25.835c13.026-10.213,12.593-31.634-.865-41.154l-140.514-99.706c-31.807-22.546-73.697,2.726-73.308,44.227Z" fill="#000072"/></g><polygon points="553.739 1225.807 553.739 1225.72 582.675 1225.72 553.739 1225.807" fill="#1b75bc"/><path d="m704.86,1033.83c-4.697,0-9.416-1.077-13.831-3.264-11.645-5.774-18.757-17.769-18.557-31.301.791-53.789.105-153.184-.613-227.092-.252-26.204,13.242-49.619,35.215-61.108,20.112-10.513,43.276-8.877,61.977,4.387l137.598,97.607c10.835,7.688,17.5,20.535,17.83,34.365.334,13.896-5.754,27.122-16.282,35.376l-183.958,144.253c-5.715,4.482-12.522,6.777-19.38,6.777Zm29.671-299.314c-4.529,0-9.08,1.126-13.421,3.394-11.836,6.189-19.101,19.204-18.957,33.97.718,74.077,1.404,173.735.608,227.832-.039,2.703,1.431,3.569,1.726,3.716.342.166.483.239,1.062-.212l183.958-144.253c3.042-2.385,4.795-6.428,4.69-10.813-.105-4.385-1.956-8.169-5.076-10.383l-137.595-97.607c-5.286-3.75-11.123-5.642-16.995-5.642Z" fill="#000072"/><rect x="2097.311" y="1208.281" width="28.936" height="17.527" fill="#1b75bc"/><path d="m1969.555,1028.056c-7.988,0-15.916-2.676-22.573-7.896l-178.02-139.597c-9.885-7.749-15.598-20.156-15.286-33.184.312-12.966,6.57-25.017,16.743-32.231l140.542-99.697c18.691-13.262,41.86-14.898,61.978-4.385,21.973,11.489,35.466,34.902,35.212,61.106-.652,67.383-1.311,159.458-.752,215.43h0c.156,15.918-8.22,29.983-21.863,36.704-5.098,2.515-10.554,3.75-15.981,3.75Zm-24.075-293.54c-5.874,0-11.709,1.892-16.992,5.642l-140.544,99.697c-2.412,1.711-3.901,4.795-3.984,8.252-.083,3.516,1.296,6.738,3.694,8.618l178.02,139.597c2.083,1.633,4.258,1.902,6.472.813,2.432-1.199,5.012-4.253,4.961-9.231h0c-.559-56.218.1-148.506.752-216.025.144-14.766-7.119-27.781-18.955-33.967-4.341-2.27-8.894-3.396-13.423-3.396Z" fill="#000072"/><path d="m2297.754,1581.828l-16.878,197.031-6.707,78.414c-5.063,58.811-51.454,104.509-110.308,108.707l-551.236,39.207-5.193-73.351,551.236-39.25c22.503-1.601,40.246-19.084,42.193-41.587l5.366-62.619,18.219-212.826,73.308,6.275Z" fill="#f21ca0"/><g fill="none" opacity=".6"><path d="m2297.754,1581.828l-2.294,26.831-71.014-6.059-18.219,212.826-5.366,62.619c-1.947,22.503-19.69,39.986-42.193,41.587l-549.332,39.12-1.904-26.917,551.236-39.25c22.503-1.601,40.246-19.084,42.193-41.587l5.366-62.619,18.219-212.826,73.308,6.275Z" fill="#fff"/></g><path d="m1598.608,2021.381l-7.373-103.599,566.338-40.303c15.046-1.072,26.904-12.759,28.193-27.791l24.89-290.51,103.481,8.87-24.893,290.51c-5.676,66.27-57.952,117.795-124.299,122.517l-566.338,40.305Zm24.995-75.532l3.071,43.164,536.123-38.152c51.384-3.657,91.87-43.564,96.267-94.89l22.305-260.327-43.115-3.696-22.307,260.33c-2.568,29.976-26.213,53.281-56.223,55.417l-536.121,38.154Z" fill="#000072"/><g fill="none" opacity=".3"><path d="m2297.754,1581.828l-16.878,197.031c-34.273-7.746-59.286.693-74.649,9.521l18.219-212.826,73.308,6.275Z" fill="#000072"/></g><path d="m509.327,1708.856l-1.67.013c-32.427.255-58.707-28.339-58.697-63.867l.146-530.798c.01-35.528,26.305-64.537,58.732-64.792l1.67-.013c32.427-.256,58.707,28.339,58.697,63.867l-.146,530.798c-.01,35.528-26.305,64.537-58.732,64.792Z" fill="#5b28a5"/><path d="m446.004,1636.205l2.958-.023.141-513.156-2.958.023c-114.882.905-208.041,103.675-208.076,229.544l-.016,57.346c-.035,125.869,93.068,227.171,207.95,226.266Z" fill="#f21ca0"/><g fill="none" opacity=".3"><path d="m448.976,1645.009c0,35.529,26.268,64.133,58.681,63.874l1.688-.043c32.413-.26,58.724-29.254,58.724-64.782l.13-530.811c0-.606,0-1.212-.043-1.817l-.087,346.675c0,35.529-26.311,64.566-58.724,64.826h-1.688c-31.893.26-57.815-27.436-58.637-62.143l-.043,184.221Z" fill="#000072"/></g><g fill="none" opacity=".6"><path d="m449.106,1114.199v37.995c.043-35.529,26.311-64.566,58.767-64.783l1.645-.043c32.283-.26,58.507,28.129,58.681,63.441v-37.563c.043-35.529-26.268-64.09-58.681-63.831h-1.645c-32.456.26-58.724,29.254-58.767,64.783Z" fill="#fff"/></g><g fill="none" opacity=".3"><path d="m245.267,1409.94c0,125.887,93.084,227.15,207.979,226.285l2.943-.043.13-513.154h-.043l-.087,383.329-2.943.043c-103.6.779-189.457-81.487-205.339-189.977-1.687,11.771-2.596,23.888-2.596,36.178l-.043,57.339Z" fill="#000072"/></g><g fill="none" opacity=".6"><path d="m238.097,1412.017v-16.142c0-125.887,93.171-228.665,208.066-229.53l2.943-.043v-43.275l-2.943.043c-114.895.866-208.066,103.644-208.066,229.53l-.043,57.339c0,.693,0,1.385.043,2.077Z" fill="#fff"/></g><path d="m507.218,1724.018c-18.542,0-36.208-7.405-49.797-20.889-15.01-14.897-23.613-36.084-23.608-58.132l.147-530.798c.012-43.755,33.101-79.612,73.76-79.932l1.658-.015c.181,0,.364-.003.547-.003,18.565,0,36.235,7.407,49.822,20.894,15.01,14.895,23.613,36.082,23.608,58.127l-.147,530.798c-.012,43.752-33.101,79.612-73.76,79.934l-1.68.012c-.183,0-.366.002-.549.002Zm2.71-659.475c-.1,0-.2,0-.3.002l-1.658.015c-24.104.188-43.711,22.461-43.718,49.648l-.146,530.798c-.005,14.026,5.337,27.373,14.653,36.621,7.869,7.808,17.971,12.097,28.474,12.097.102,0,.203,0,.305-.002l1.68-.012c24.087-.195,43.689-22.466,43.696-49.651l.147-530.798c.005-14.023-5.337-27.371-14.653-36.616-7.869-7.812-17.974-12.102-28.479-12.102Z" fill="#000072"/><path d="m444.494,1651.357c-55.496,0-108.464-22.271-149.334-62.83-45.935-45.588-72.271-110.684-72.253-178.594l.017-57.346c.037-133.95,100.12-243.716,223.103-244.685l18.228-.134-.151,543.435-17.979.149c-.542.002-1.091.005-1.631.005Zm-10.542-512.637c-100.703,7.812-180.706,101.05-180.735,213.877l-.017,57.346c-.017,59.888,23.054,117.144,63.298,157.083,32.502,32.256,73.777,51.064,117.322,53.716l.132-482.021Z" fill="#000072"/><path d="m2170.658,1708.856l1.67.013c32.427.255,58.707-28.339,58.697-63.867l-.146-530.798c-.01-35.528-26.305-64.537-58.732-64.792l-1.67-.013c-32.427-.256-58.707,28.339-58.697,63.867l.146,530.798c.01,35.528,26.305,64.537,58.732,64.792Z" fill="#5b28a5"/><g fill="none" opacity=".3"><path d="m2231.024,1645.009c0,35.529-26.268,64.133-58.681,63.874l-1.688-.043c-32.413-.26-58.724-29.254-58.724-64.782l-.13-530.811c0-.606,0-1.212.043-1.817l.087,346.675c0,35.529,26.311,64.566,58.724,64.826h1.688c31.893.26,57.815-27.436,58.637-62.143l.043,184.221Z" fill="#000072"/></g><g fill="none" opacity=".6"><path d="m2230.894,1114.199v37.995c-.043-35.529-26.311-64.566-58.767-64.783l-1.645-.043c-32.283-.26-58.507,28.129-58.681,63.441v-37.563c-.043-35.529,26.268-64.09,58.681-63.831h1.645c32.456.26,58.724,29.254,58.767,64.783Z" fill="#fff"/></g><path d="m2233.981,1636.205l-2.958-.023-.141-513.156,2.958.023c114.882.905,208.041,103.675,208.076,229.544l.016,57.346c.035,125.869-93.068,227.171-207.95,226.266Z" fill="#f21ca0"/><g fill="none" opacity=".3"><path d="m2434.733,1409.94c0,125.887-93.084,227.15-207.979,226.285l-2.943-.043-.13-513.154h.043l.087,383.329,2.943.043c103.6.779,189.457-81.487,205.339-189.977,1.687,11.771,2.596,23.888,2.596,36.178l.043,57.339Z" fill="#000072"/></g><g fill="none" opacity=".6"><path d="m2441.903,1412.017v-16.142c0-125.887-93.171-228.665-208.066-229.53l-2.943-.043v-43.275l2.943.043c114.895.866,208.066,103.644,208.066,229.53l.043,57.339c0,.693,0,1.385-.043,2.077Z" fill="#fff"/></g><path d="m2172.76,1724.018c-.185,0-.369-.002-.552-.002l-1.67-.012c-40.659-.322-73.748-36.182-73.76-79.934l-.146-530.798c-.005-22.046,8.599-43.232,23.606-58.127,13.723-13.621,31.501-20.986,50.359-20.891l1.682.015c40.645.32,73.733,36.177,73.745,79.932l.147,530.798c.005,22.048-8.599,43.237-23.608,58.132-13.586,13.484-31.255,20.889-49.802,20.889Zm-1.992-30.308l1.67.012c.103.002.205.002.305.002,10.513,0,20.613-4.29,28.481-12.097,9.316-9.246,14.658-22.595,14.653-36.621l-.147-530.798c-.007-27.188-19.612-49.46-43.704-49.648l-1.682-.015c-.1-.002-.203-.002-.303-.002-10.493,0-20.596,4.289-28.464,12.1-9.316,9.248-14.658,22.593-14.653,36.619l.147,530.798c.007,27.185,19.609,49.456,43.696,49.651h0Z" fill="#000072"/><path d="m2235.492,1651.357c-.542,0-1.086-.003-1.631-.005l-17.981-.149-.151-543.435,18.223.134c122.991.969,223.074,110.735,223.11,244.685l.017,57.346c.017,67.91-26.318,133.005-72.253,178.594-40.867,40.557-93.84,62.83-149.334,62.83Zm10.54-512.637l.132,482.021c43.55-2.649,84.822-21.46,117.324-53.716,40.244-39.939,63.315-97.195,63.298-157.083l-.017-57.346c-.029-112.82-80.037-206.052-180.737-213.877Z" fill="#000072"/><rect x="1498.449" y="1889.314" width="191.623" height="152.907" rx="39.534" ry="39.534" transform="translate(-144.559 126.634) rotate(-4.352)" fill="#00a4ff"/><g fill="none" opacity=".3"><path d="m1656.16,2037.729l-112.212,8.525c-21.767,1.688-40.765-14.627-42.409-36.394l-5.626-73.654c-.433-5.972.433-11.728,2.424-16.964l2.812,36.567c1.645,21.767,20.642,38.082,42.41,36.394l112.255-8.525c15.839-1.168,28.735-11.554,33.971-25.446l2.812,37.087c1.644,21.767-14.67,40.765-36.437,42.409Z" fill="#000072"/></g><g fill="none" opacity=".6"><path d="m1690.78,2010.596l-3.765-49.506c-1.687-21.767-20.686-38.082-42.452-36.394l-112.212,8.525c-16.444,1.255-29.773,12.377-34.577,27.133l-1.861-24.147c-1.645-21.767,14.67-40.765,36.437-42.41l112.212-8.525c21.767-1.644,40.765,14.627,42.452,36.394l5.583,73.654c.39,5.323-.26,10.472-1.817,15.276Z" fill="#fff"/></g><path d="m1540.859,2061.535c-13.047,0-25.527-4.607-35.532-13.196-11.082-9.514-17.796-22.776-18.901-37.341l-5.603-73.623c-1.108-14.565,3.52-28.689,13.035-39.771,9.514-11.081,22.776-17.793,37.341-18.901l112.227-8.54c14.58-1.094,28.689,3.521,39.768,13.035,11.084,9.514,17.795,22.773,18.904,37.339l5.603,73.625c1.108,14.563-3.521,28.686-13.035,39.768-9.514,11.082-22.776,17.795-37.339,18.904l-112.229,8.54c-1.418.108-2.832.161-4.238.161Zm106.755-161.24c-.628,0-1.257.024-1.89.073l-112.229,8.54c-6.497.493-12.412,3.489-16.655,8.43-4.243,4.941-6.309,11.24-5.813,17.737l5.603,73.625c.493,6.497,3.489,12.412,8.43,16.655,4.941,4.243,11.233,6.296,17.737,5.813l112.229-8.54c6.496-.496,12.412-3.489,16.655-8.433,4.243-4.941,6.309-11.24,5.813-17.734l-5.603-73.628c-.493-6.497-3.489-12.41-8.43-16.653-4.46-3.831-10.029-5.886-15.847-5.886Z" fill="#000072"/><path d="m1426.754,1757.669c14.133,41.07,3.836,80.019-22.088,105.515-9.428,9.344-20.94,16.894-34.152,22.085-35.556,13.999-75.695,5.786-105.588-18.07-13.132-10.471-23.679-22.776-31.688-36.198-25.023-41.646-25.82-93.475-5.766-130.576,9.193-17.046,31.769-21.166,46.557-8.689,43.464,36.663,94.52,58.383,152.725,65.934Z" fill="#000072"/><path d="m1492.999,1580.671c0,25.808-39.32,46.729-87.823,46.729s-87.823-20.921-87.823-46.729,40.823-32.147,89.327-32.147,86.32,6.339,86.32,32.147Z" fill="#000072"/><path d="m1404.666,1863.184c-9.428,9.344-20.94,16.894-34.152,22.085-35.556,13.999-75.695,5.786-105.588-18.07-13.132-10.471-23.679-22.776-31.688-36.198,57.335-51.441,140.654-37.347,171.428,32.183Z" fill="#d94452"/><path d="m1334.286,1907.194c-27.649,0-55.647-9.675-78.806-28.157-14.197-11.318-26.057-24.871-35.249-40.278-27.092-45.088-29.49-102.231-6.084-145.537,6.519-12.085,18.017-20.498,31.54-23.066,13.623-2.593,27.505,1.059,38.108,10.002,40.62,34.263,89.373,55.288,144.907,62.49l9.316,1.208,3.057,8.882c15.437,44.856,5.796,90.181-25.789,121.243-11.043,10.947-24.258,19.499-39.236,25.383-13.354,5.261-27.515,7.83-41.765,7.83Zm-80.029-207.554c-.969,0-1.943.09-2.915.273-2.659.505-7.561,2.178-10.537,7.7-18.142,33.562-15.962,80.007,5.417,115.586,7.341,12.307,16.804,23.113,28.147,32.156,26.653,21.27,61.365,27.329,90.596,15.82,11.133-4.375,20.898-10.681,29.041-18.75,21.104-20.757,28.665-50.569,21.006-81.148-57.353-9.094-108.027-31.931-150.747-67.966-2.842-2.395-6.374-3.672-10.007-3.672Z" fill="#000072"/><path d="m1426.598,1742.512c22.903,1.201,45.681.547,67.678-4.146,21.962-4.622,43.023-13.599,61.298-27.322,2.864-2.166,6.942-1.599,9.109,1.267,2.002,2.649,1.653,6.35-.674,8.603-17.847,17.207-40.117,30.195-63.872,38.279-23.778,8.198-48.722,11.914-73.235,13.608l-.054.002c-8.361.579-15.608-5.73-16.185-14.092s5.733-15.608,14.093-16.186c.592-.042,1.263-.042,1.842-.015Z" fill="#000072"/><path d="m1390.639,1772.888l-23.892-18.628c37.644-48.281,33.093-134.81,33.044-135.679l30.239-1.753c.234,4.011,5.186,98.882-39.392,156.06Z" fill="#000072"/><path d="m1204.525,1434.863c-10.571.461-20.26-.335-29.624-1.589-9.39-1.221-18.297-3.127-27.002-5.32-17.334-4.497-33.632-10.466-48.975-17.795-7.693-3.633-15.148-7.605-22.421-11.836-7.328-4.153-14.556-8.445-21.672-12.9-14.246-8.884-28.011-18.455-41.191-28.857-26.361-20.806-50.287-45.076-74.547-68.867-12.141-11.88-23.739-24.531-34.139-38.889-10.424-14.324-20.062-29.761-27.321-48.586,20.168.464,37.958,4.314,54.962,9.277,17.029,4.932,32.858,11.567,48.145,18.975,30.596,14.783,61.527,29.089,90.022,46.858,14.248,8.884,27.91,18.603,41.091,29.004,6.598,5.19,13.085,10.54,19.47,16.03,6.442,5.413,12.7,11.086,18.722,17.097,12.085,11.958,23.215,25.278,33.31,40.068,5.009,7.451,9.816,15.188,14.139,23.611,4.351,8.386,8.374,17.236,11.517,27.341.808,2.595-.642,5.354-3.239,6.162-.407.127-.842.198-1.249.217Z" fill="#000072"/><path d="m1168.233,1404.526c.531,11.851.053,23.99-1.597,36.267-11.97,90.057-79.721,155.448-151.324,145.912-71.603-9.535-119.883-90.281-107.918-180.416,7.718-57.979,38.539-105.739,78.678-129.828l182.161,128.065Z" fill="#000072"/><ellipse cx="1076.752" cy="1439.98" rx="44.365" ry="35.255" transform="translate(-492.485 2317.724) rotate(-82.433)" fill="#fff"/><path d="m1111.904,1444.651c-1.044,10.408-4.845,20.852-11.973,29.026-3.55,4.058-7.908,7.527-12.944,9.844-5.012,2.349-10.764,3.303-16.377,2.683-5.603-.667-11.055-2.908-15.477-6.392-4.454-3.457-7.997-7.922-10.603-12.805-5.26-9.805-6.721-21.204-5.315-32.014,1.488-10.818,6.134-21.299,13.712-29.307,7.431-7.983,18.688-13.257,29.919-11.582,11.238,1.636,20.32,9.876,24.941,19.475,4.763,9.697,5.77,20.764,3.911,31.045l.205.027Zm-.205-.027c.767-10.413-1.139-21.008-6.144-29.866-4.862-8.848-13.396-15.784-23.213-16.86-9.802-1.204-19.513,3.574-26.053,10.921-6.696,7.353-10.516,17.024-11.897,26.863-1.218,9.88.233,20.144,4.74,28.894,4.452,8.709,12.48,15.632,22.075,17.139,9.596,1.477,19.607-2.766,26.65-9.973,7.147-7.19,11.813-16.895,13.636-27.146l.205.029Z" fill="#000072"/><path d="m1535.994,1428.484c3.143-10.105,7.168-18.955,11.518-27.341,4.324-8.423,9.131-16.16,14.139-23.611,10.095-14.79,21.224-28.11,33.311-40.068,6.021-6.011,12.279-11.685,18.722-17.097,6.386-5.491,12.871-10.84,19.469-16.03,13.182-10.4,26.845-20.12,41.093-29.004,28.495-17.769,59.425-32.075,90.021-46.858,15.287-7.407,31.117-14.043,48.146-18.975,17.004-4.963,34.792-8.814,54.962-9.277-7.258,18.826-16.898,34.263-27.321,48.586-10.4,14.358-21.998,27.009-34.139,38.889-24.26,23.792-48.186,48.061-74.547,68.867-13.18,10.403-26.946,19.973-41.193,28.857-7.115,4.456-14.345,8.748-21.672,12.9-7.272,4.231-14.727,8.203-22.419,11.836-15.343,7.329-31.641,13.298-48.975,17.795-8.705,2.192-17.612,4.099-27.002,5.32-9.364,1.255-19.054,2.051-29.624,1.589-2.717-.117-4.824-2.415-4.706-5.132.018-.425.099-.859.217-1.248Z" fill="#000072"/><path d="m1576.774,1404.526c-.531,11.851-.053,23.99,1.597,36.267,11.969,90.057,79.721,155.448,151.324,145.912,71.603-9.535,119.883-90.281,107.918-180.416-7.718-57.979-38.539-105.739-78.679-129.828l-182.16,128.065Z" fill="#000072"/><ellipse cx="1668.255" cy="1439.98" rx="35.255" ry="44.365" transform="translate(-175.101 232.232) rotate(-7.567)" fill="#fff"/><path d="m1633.513,1444.595c1.824,10.252,6.489,19.956,13.637,27.146,7.043,7.207,17.054,11.45,26.65,9.973,9.595-1.506,17.623-8.43,22.075-17.139,4.507-8.75,5.957-19.014,4.739-28.894-1.379-9.839-5.2-19.509-11.897-26.863-6.539-7.346-16.25-12.124-26.052-10.921-9.817,1.077-18.351,8.013-23.213,16.86-5.005,8.857-6.91,19.453-6.144,29.866l.205-.029Zm-.205.029c-1.859-10.281-.852-21.348,3.911-31.045,4.622-9.6,13.704-17.839,24.941-19.475,11.231-1.675,22.489,3.599,29.919,11.582,7.577,8.008,12.224,18.489,13.711,29.307,1.407,10.811-.054,22.209-5.315,32.014-2.606,4.883-6.147,9.348-10.602,12.805-4.424,3.484-9.874,5.725-15.478,6.392-5.613.62-11.364-.335-16.377-2.683-5.035-2.317-9.393-5.786-12.944-9.844-7.127-8.174-10.928-18.618-11.971-29.026l.205-.027Z" fill="#000072"/><g fill="none" opacity=".3"><path d="m1402.062,1576.017c.354,5.397-10.734,10.517-24.766,11.437-14.032.92-25.693-2.709-26.047-8.106-.354-5.397,10.734-10.517,24.766-11.437,14.032-.92,25.693,2.709,26.047,8.106Z" fill="#fff"/></g><g fill="none" opacity=".6"><path d="m1692.424,2362.594c-1.644,1.039-3.332,2.034-5.106,3.029,1.514-.952,3.202-1.947,5.106-3.029Z" fill="#fff"/></g><path d="m1970.854,562.231c23.21,0,46.502,5.701,68.223,17.192,54.187,28.667,87.849,87.114,87.849,152.529v206.86c32.239,34.849,61.763,71.856,88.281,110.759,13.577,10.62,23.679,26.028,28.176,43.889,3.091,5.132,6.113,10.303,9.102,15.491,114.353,11.208,204.543,116.492,204.578,243.635l.015,57.344c.017,67.91-26.318,133.008-72.256,178.599-22.436,22.266-48.535,38.979-76.685,49.563l-18.892,220.466c-5.679,66.27-57.954,117.793-124.299,122.515l-195.078,13.882c-7.219,6.028-14.548,11.98-22.104,17.783-11.279,8.667-22.954,17.004-34.924,25.085,45.85,112.449,56.904,227.4,31.682,334.28-24.294,102.944-80.845,192.632-159.233,252.539-57.459,43.911-122.114,68.237-186.975,70.352-3.027.098-6.047.147-9.062.147-64.346,0-125.696-22.49-178.332-65.283h-167.053c-52.637,42.793-113.994,65.283-178.335,65.283-3.018,0-6.033-.049-9.062-.147-64.861-2.114-129.517-26.44-186.975-70.352-78.389-59.907-134.939-149.595-159.233-252.539-26.565-112.568-12.873-234.082,39.321-352.205-3.206-2.376-6.426-4.739-9.578-7.161-101.914-78.289-173.264-177.107-211.804-291.585-5.999,1.751-12.261,2.798-18.75,2.849l-1.704.01h-.554c-18.518,0-36.182-7.402-49.766-20.884-13.621-13.511-21.89-32.219-23.315-52.034-51.69-2.598-100.635-24.546-138.945-62.566-45.938-45.591-72.273-110.689-72.256-178.599l.015-57.344c.037-127.756,91.099-233.435,206.216-243.787,2.148-3.728,4.265-7.473,6.467-11.172,4.165-21.021,16.072-39.014,32.327-50.405,25.676-37.422,54.138-73.076,85.127-106.733v-205.637c0-65.732,33.899-124.302,88.469-152.861,21.587-11.296,44.658-16.892,67.654-16.89,29.177.002,58.228,9.016,83.914,26.831l133.037,92.322c126.934-51.304,267.2-79.866,414.634-79.866,145.4,0,283.823,27.781,409.368,77.754l137.932-93.877c25.413-17.297,54.04-26.035,82.788-26.035m0-25c-34.175,0-67.666,10.5-96.855,30.369l-127.034,86.46c-128.938-49.558-265.517-74.67-406.199-74.67-142.637,0-280.967,25.791-411.399,76.682l-122.019-84.678c-29.514-20.471-63.457-31.289-98.166-31.292-27.546-.002-54.209,6.638-79.246,19.739-62.839,32.888-101.877,99.949-101.877,175.012v195.952c-28.298,31.352-54.614,64.539-78.35,98.806-17.79,13.816-30.918,33.74-36.951,56.001-57.009,8.684-109.458,38.459-148.926,84.856-42.483,49.941-65.891,114.617-65.911,182.112l-.015,57.344c-.02,74.531,29.011,146.099,79.646,196.35,37.483,37.2,84.9,60.879,135.247,67.893,4.863,17.791,14.119,33.919,27.019,46.711,18.279,18.142,42.207,28.135,67.371,28.135h.554l1.846-.01c.652-.005,1.306-.017,1.96-.037,40.908,109.392,110.584,203.164,207.405,279.082-47.964,117.463-59.409,238.003-33.027,349.797,25.618,108.552,85.418,203.254,168.384,266.66,61.621,47.092,131.243,73.191,201.34,75.476,3.31.105,6.594.159,9.878.159,67.07,0,131.548-22.542,187.029-65.283h149.666c55.481,42.742,119.956,65.283,187.026,65.283,3.284,0,6.57-.054,9.866-.159,70.11-2.285,139.731-28.384,201.353-75.476,82.966-63.406,142.766-158.108,168.384-266.66,24.893-105.481,16.028-219.421-25.544-330.723,6.814-4.856,13.337-9.683,19.688-14.561,5.239-4.026,10.728-8.391,16.641-13.24l187.085-13.313c78.694-5.601,140.698-66.714,147.434-145.317l17.595-205.344c26.03-11.841,49.751-28.301,70.681-49.075,50.635-50.251,79.665-121.819,79.646-196.35l-.015-57.344c-.017-67.148-23.218-131.58-65.322-181.418-39.348-46.577-91.809-76.589-148.87-85.452-.427-.725-.852-1.438-1.272-2.144-5.818-20.002-17.305-37.893-32.783-51.069-24.697-35.935-52.205-70.669-81.89-103.403v-197.141c0-74.705-38.762-141.616-101.16-174.627-24.844-13.147-52.478-20.095-79.912-20.095h0Z" fill="#fff"/></g></svg>