<svg width="414" height="427" viewBox="0 0 414 427" fill="none" xmlns="http://www.w3.org/2000/svg">
<g clip-path="url(#clip0_10_2)">
<path d="M49.262 273.85L34.429 274.129L26.914 274.241C24.404 274.288 21.882 274.279 19.365 274.296L18.921 274.299L18.919 273.85L18.865 261.217L18.863 260.715L19.365 260.717L34.313 260.78C39.296 260.785 44.278 260.892 49.261 260.944L49.536 260.947L49.534 261.217C49.515 263.356 49.448 265.485 49.403 267.592L49.262 273.85ZM49.262 273.85L49.12 267.475C49.075 265.372 49.008 263.289 48.989 261.217L49.262 261.49C44.279 261.541 39.297 261.649 34.314 261.654L19.366 261.717L19.865 261.218L19.811 273.851L19.365 273.405C21.831 273.423 24.292 273.413 26.765 273.46L34.198 273.572L49.262 273.851V273.85Z" fill="#EBEBEB" fill-opacity="0.8"/>
<path d="M32.585 289.78L17.752 290.059L10.237 290.171C7.72697 290.218 5.20497 290.209 2.68797 290.226L2.24397 290.229L2.24197 289.78L2.18797 277.147L2.18597 276.645L2.68797 276.647L17.636 276.71C22.619 276.715 27.601 276.822 32.584 276.874L32.859 276.877L32.857 277.147C32.838 279.286 32.771 281.415 32.726 283.522L32.585 289.78ZM32.585 289.78L32.443 283.405C32.398 281.302 32.331 279.219 32.312 277.147L32.585 277.42C27.602 277.471 22.62 277.579 17.637 277.584L2.68897 277.647L3.18797 277.148L3.13397 289.781L2.68797 289.335C5.15397 289.353 7.61497 289.343 10.088 289.39L17.521 289.502L32.585 289.781V289.78Z" fill="#EBEBEB" fill-opacity="0.8"/>
<path d="M32.585 16.419L17.752 16.698L10.237 16.81C7.72697 16.857 5.20497 16.847 2.68797 16.865L2.24397 16.868L2.24197 16.419L2.18797 3.786L2.18597 3.284L2.68797 3.286L17.636 3.349C22.619 3.354 27.601 3.461 32.584 3.513L32.859 3.516L32.857 3.786C32.838 5.925 32.771 8.054 32.726 10.161L32.585 16.419ZM32.585 16.419L32.443 10.044C32.398 7.941 32.331 5.858 32.312 3.786L32.585 4.059C27.602 4.11 22.62 4.218 17.637 4.223L2.68897 4.286L3.18797 3.787L3.13397 16.42L2.68797 15.974C5.15397 15.992 7.61497 15.982 10.088 16.029L17.521 16.141L32.585 16.419Z" fill="#EBEBEB" fill-opacity="0.8"/>
<path d="M410.563 16.419L395.73 16.698L388.215 16.81C385.705 16.857 383.183 16.847 380.666 16.865L380.222 16.868L380.22 16.419L380.166 3.786L380.164 3.284L380.666 3.286L395.614 3.349C400.597 3.354 405.579 3.461 410.562 3.513L410.837 3.516L410.835 3.786C410.816 5.925 410.749 8.054 410.704 10.161L410.563 16.419ZM410.563 16.419L410.421 10.044C410.376 7.941 410.309 5.858 410.29 3.786L410.563 4.059C405.58 4.11 400.598 4.218 395.615 4.223L380.667 4.286L381.166 3.787L381.112 16.42L380.666 15.974C383.132 15.992 385.593 15.982 388.066 16.029L395.499 16.141L410.563 16.419Z" fill="#EBEBEB" fill-opacity="0.8"/>
<path d="M393.886 32.349L379.053 32.628L371.538 32.74C369.028 32.787 366.506 32.777 363.989 32.795L363.545 32.798L363.543 32.349L363.489 19.716L363.487 19.214L363.989 19.216L378.937 19.279C383.92 19.284 388.902 19.391 393.885 19.443L394.16 19.446L394.158 19.716C394.139 21.855 394.072 23.984 394.027 26.091L393.886 32.349ZM393.886 32.349L393.744 25.974C393.699 23.871 393.632 21.788 393.613 19.716L393.886 19.989C388.903 20.04 383.921 20.148 378.938 20.153L363.99 20.216L364.489 19.717L364.435 32.35L363.989 31.904C366.455 31.922 368.916 31.912 371.389 31.959L378.822 32.071L393.886 32.349Z" fill="#EBEBEB" fill-opacity="0.8"/>
<path d="M317.317 180.143L302.484 180.422L294.969 180.534C292.459 180.581 289.937 180.572 287.42 180.589L286.976 180.592L286.974 180.143L286.92 167.51L286.918 167.008L287.42 167.01L302.368 167.073C307.351 167.078 312.333 167.186 317.316 167.237L317.591 167.24L317.589 167.51C317.57 169.649 317.503 171.778 317.458 173.885L317.317 180.143ZM317.317 180.143L317.175 173.768C317.13 171.664 317.063 169.582 317.044 167.51L317.317 167.783C312.334 167.834 307.352 167.942 302.369 167.947L287.421 168.01L287.92 167.511L287.866 180.144L287.42 179.699C289.886 179.716 292.347 179.707 294.82 179.754L302.253 179.866L317.317 180.145V180.143Z" fill="#EBEBEB" fill-opacity="0.8"/>
<path d="M300.64 196.073L285.807 196.352L278.292 196.464C275.782 196.511 273.26 196.501 270.743 196.519L270.299 196.522L270.297 196.073L270.243 183.44L270.241 182.938L270.743 182.94L285.691 183.003C290.674 183.008 295.656 183.116 300.639 183.167L300.914 183.17L300.912 183.44C300.893 185.579 300.826 187.708 300.781 189.815L300.639 196.073H300.64ZM300.64 196.073L300.498 189.698C300.453 187.595 300.386 185.512 300.367 183.44L300.64 183.713C295.657 183.764 290.675 183.872 285.692 183.877L270.744 183.94L271.243 183.441L271.189 196.074L270.743 195.628C273.209 195.646 275.67 195.636 278.142 195.683L285.575 195.795L300.638 196.074L300.64 196.073Z" fill="#EBEBEB" fill-opacity="0.8"/>
<path d="M284.029 180.143L269.196 180.422L261.681 180.534C259.171 180.581 256.649 180.572 254.132 180.589L253.688 180.592L253.686 180.143L253.632 167.51L253.63 167.008L254.132 167.01L269.08 167.073C274.063 167.078 279.045 167.186 284.028 167.237L284.303 167.24L284.301 167.51C284.282 169.649 284.215 171.778 284.17 173.885L284.029 180.143ZM284.029 180.143L283.887 173.768C283.842 171.664 283.775 169.582 283.756 167.51L284.029 167.783C279.046 167.834 274.063 167.942 269.081 167.947L254.133 168.01L254.632 167.511L254.578 180.144L254.132 179.699C256.598 179.716 259.059 179.707 261.532 179.754L268.965 179.866L284.029 180.145V180.143Z" fill="#EBEBEB" fill-opacity="0.8"/>
<path d="M410.563 289.78L395.73 290.059L388.215 290.171C385.705 290.218 383.183 290.209 380.666 290.226L380.222 290.229L380.22 289.78L380.166 277.147L380.164 276.645L380.666 276.647L395.614 276.71C400.597 276.715 405.579 276.822 410.562 276.874L410.837 276.877L410.835 277.147C410.816 279.286 410.749 281.415 410.704 283.522L410.563 289.78ZM410.563 289.78L410.421 283.405C410.376 281.302 410.309 279.219 410.29 277.147L410.563 277.42C405.58 277.471 400.598 277.579 395.615 277.584L380.667 277.647L381.166 277.148L381.112 289.781L380.666 289.335C383.132 289.353 385.593 289.343 388.066 289.39L395.499 289.502L410.563 289.781V289.78Z" fill="#EBEBEB" fill-opacity="0.8"/>
<path d="M156.552 53.987L141.719 54.266L134.204 54.378C131.694 54.425 129.172 54.415 126.655 54.433L126.211 54.436L126.209 53.987L126.155 41.354L126.153 40.852L126.655 40.854L141.603 40.917C146.586 40.922 151.568 41.029 156.551 41.081L156.826 41.084L156.824 41.354C156.805 43.493 156.738 45.622 156.693 47.729L156.551 53.987H156.552ZM156.552 53.987L156.41 47.612C156.365 45.509 156.298 43.426 156.279 41.354L156.552 41.627C151.569 41.678 146.587 41.786 141.604 41.791L126.656 41.854L127.155 41.355L127.101 53.988L126.655 53.542C129.121 53.559 131.582 53.55 134.055 53.597L141.488 53.709L156.552 53.987Z" fill="#EBEBEB" fill-opacity="0.8"/>
<path d="M379.851 137.677L385.738 128.186L382.831 126.385C381.976 125.855 381.513 124.889 381.599 123.887C381.646 123.333 381.664 122.776 381.652 122.217C381.63 121.214 382.154 120.281 383.038 119.807L386.051 118.191L380.771 108.345L377.759 109.961C376.875 110.435 375.808 110.355 374.985 109.782C374.526 109.463 374.052 109.169 373.565 108.902C372.683 108.419 372.134 107.498 372.166 106.494L372.274 103.076L361.111 102.729L361.008 106.159C360.978 107.165 360.361 108.04 359.451 108.47C359.204 108.587 358.959 108.71 358.717 108.84C358.474 108.97 358.236 109.106 358.003 109.247C357.146 109.765 356.081 109.795 355.23 109.267L352.302 107.453L346.415 116.944L349.327 118.751C350.181 119.282 350.644 120.249 350.557 121.251C350.509 121.803 350.491 122.358 350.502 122.914C350.523 123.916 349.999 124.848 349.116 125.321L346.102 126.937L351.382 136.782L354.396 135.166C355.279 134.692 356.345 134.772 357.168 135.343C357.625 135.66 358.098 135.952 358.584 136.217C359.467 136.699 360.017 137.62 359.986 138.625L359.881 142.051L371.044 142.398L371.15 138.971C371.181 137.969 371.796 137.097 372.702 136.669C372.95 136.552 373.197 136.427 373.442 136.296C373.684 136.166 373.923 136.03 374.157 135.889C375.019 135.369 376.088 135.339 376.944 135.87L379.853 137.675L379.851 137.677ZM370.4 130.629C365.948 133.017 360.408 131.345 358.02 126.892C355.632 122.44 357.3 116.892 361.752 114.504C366.204 112.116 371.756 113.792 374.144 118.244C376.532 122.696 374.852 128.24 370.399 130.628L370.4 130.629Z" fill="#EBEBEB" fill-opacity="0.8"/>
<path d="M58.156 245.216L64.043 235.725L61.136 233.925C60.281 233.395 59.818 232.429 59.904 231.427C59.951 230.873 59.969 230.316 59.957 229.757C59.935 228.754 60.459 227.821 61.343 227.347L64.356 225.731L59.076 215.886L56.064 217.502C55.18 217.976 54.113 217.896 53.29 217.323C52.831 217.004 52.357 216.71 51.87 216.443C50.988 215.96 50.439 215.039 50.471 214.034L50.579 210.616L39.416 210.269L39.313 213.699C39.283 214.705 38.666 215.58 37.757 216.01C37.51 216.127 37.265 216.25 37.023 216.38C36.781 216.51 36.542 216.646 36.309 216.787C35.452 217.305 34.387 217.335 33.536 216.808L30.608 214.994L24.721 224.485L27.633 226.292C28.487 226.822 28.95 227.79 28.863 228.792C28.815 229.343 28.797 229.899 28.808 230.455C28.829 231.457 28.305 232.389 27.422 232.862L24.408 234.478L29.688 244.323L32.702 242.707C33.585 242.233 34.651 242.313 35.474 242.884C35.931 243.201 36.404 243.493 36.89 243.758C37.773 244.24 38.323 245.161 38.292 246.166L38.187 249.591L49.35 249.938L49.456 246.511C49.487 245.509 50.102 244.637 51.008 244.208C51.256 244.091 51.503 243.966 51.748 243.835C51.99 243.705 52.229 243.569 52.463 243.428C53.324 242.908 54.394 242.878 55.25 243.409L58.159 245.214L58.156 245.216ZM48.705 238.168C44.253 240.556 38.713 238.884 36.325 234.431C33.937 229.979 35.605 224.431 40.058 222.043C44.51 219.655 50.062 221.331 52.45 225.783C54.838 230.235 53.158 235.78 48.705 238.168Z" fill="#EBEBEB" fill-opacity="0.8"/>
<path d="M172.494 63.444L168.584 56.667L166.51 57.865C165.9 58.217 165.15 58.184 164.56 57.799C164.234 57.586 163.896 57.391 163.547 57.214C162.921 56.896 162.518 56.263 162.518 55.561V53.166H154.692V55.561C154.692 56.264 154.289 56.896 153.663 57.214C153.314 57.391 152.976 57.587 152.65 57.799C152.06 58.184 151.31 58.218 150.7 57.865L148.626 56.667L144.716 63.444L146.799 64.643C147.41 64.995 147.746 65.665 147.71 66.369C147.7 66.56 147.695 66.752 147.695 66.945C147.695 67.138 147.7 67.33 147.71 67.521C147.746 68.222 147.412 68.889 146.805 69.24L144.716 70.447L148.626 77.224L150.706 76.025C151.316 75.673 152.067 75.708 152.656 76.093C152.981 76.305 153.317 76.5 153.665 76.677C154.29 76.996 154.692 77.628 154.692 78.33V80.726H162.518V78.33C162.518 77.628 162.92 76.996 163.545 76.677C163.892 76.5 164.229 76.305 164.553 76.093C165.143 75.707 165.894 75.673 166.504 76.025L168.584 77.224L172.494 70.447L170.414 69.247C169.805 68.896 169.471 68.228 169.507 67.526C169.517 67.334 169.521 67.141 169.521 66.946C169.521 66.753 169.516 66.561 169.507 66.37C169.471 65.666 169.807 64.995 170.418 64.643L172.495 63.445L172.494 63.444ZM165.013 66.945C165.013 70.484 162.146 73.351 158.607 73.351C155.068 73.351 152.195 70.484 152.195 66.945C152.195 63.406 155.068 60.533 158.607 60.533C162.146 60.533 165.013 63.406 165.013 66.945Z" fill="#EBEBEB" fill-opacity="0.8"/>
<path d="M45.461 260.546C32.393 273.34 30.199 293.133 32.953 310.47C33.024 310.863 33.633 310.756 33.633 310.387C33.633 306.44 33.514 302.529 33.526 298.63C33.597 298.451 33.657 298.284 33.729 298.105C37.139 295.625 40.275 292.823 42.219 288.983C44.401 284.691 45.259 279.85 46.929 275.366C47.084 274.937 46.626 275.063 46.327 275.284C38.378 281.147 35.844 287.456 33.563 295.887C33.67 291.511 34.004 287.135 34.946 282.759C36.663 274.758 40.061 266.829 45.809 260.891C46.024 260.664 45.69 260.319 45.463 260.545L45.461 260.546Z" fill="#242A34"/>
<path d="M47.917 262.037C50.165 262.113 51.575 265.706 53.327 266.755C54.254 267.313 55.157 267.279 55.808 266.365C57.544 263.942 55.162 260.952 52.922 259.28C54.524 259.939 55.853 261.096 57.579 261.424C58.625 261.616 59.438 261.228 59.682 260.165C60.443 256.861 56.299 255.391 53.456 255.322C54.834 254.364 58.785 251.759 56.686 250.478C54.559 249.192 49.923 252.917 48.411 254.143C46.189 255.946 43.539 258.641 43.438 261.461C43.308 264.753 46.186 262.727 47.917 262.037Z" fill="#FFC727"/>
<path opacity="0.1" d="M47.917 262.037C50.165 262.113 51.575 265.706 53.327 266.755C54.254 267.313 55.157 267.279 55.808 266.365C57.544 263.942 55.162 260.952 52.922 259.28C54.524 259.939 55.853 261.096 57.579 261.424C58.625 261.616 59.438 261.228 59.682 260.165C60.443 256.861 56.299 255.391 53.456 255.322C54.834 254.364 58.785 251.759 56.686 250.478C54.559 249.192 49.923 252.917 48.411 254.143C46.189 255.946 43.539 258.641 43.438 261.461C43.308 264.753 46.186 262.727 47.917 262.037Z" fill="#11151D"/>
<path d="M47.267 262.591C50.141 261.284 55.663 263.165 56.133 262.077C57.085 259.862 52.672 258.343 50.29 258.049C52.484 257.455 56.687 256.508 56.557 254.392C56.399 251.809 50.11 254.03 46.927 256.471C42.917 259.546 42.943 262.513 43.606 263.107C44.515 263.922 46.792 262.806 47.266 262.59L47.267 262.591Z" fill="#FFC727"/>
<path d="M15.699 259.279C29.244 271.567 32.19 291.262 30.097 308.692C30.041 309.088 29.429 309.004 29.415 308.635C29.265 304.691 29.235 300.779 29.075 296.883C28.997 296.707 28.931 296.543 28.852 296.367C25.35 294.018 22.11 291.338 20.022 287.575C17.678 283.369 16.636 278.564 14.798 274.147C14.627 273.724 15.089 273.832 15.397 274.042C23.563 279.598 26.335 285.807 28.936 294.144C28.662 289.775 28.162 285.415 27.055 281.078C25.035 273.148 21.338 265.354 15.369 259.639C15.146 259.421 15.466 259.062 15.701 259.28L15.699 259.279Z" fill="#242A34"/>
<path d="M13.301 260.863C11.057 261.024 9.78598 264.669 8.07498 265.783C7.16998 266.376 6.26698 266.376 5.58098 265.488C3.75398 263.132 6.01998 260.054 8.19498 258.298C6.61898 259.017 5.33598 260.224 3.62198 260.618C2.58398 260.849 1.75698 260.493 1.47298 259.44C0.586984 256.167 4.67198 254.541 7.50998 254.364C6.09598 253.459 2.04898 251.006 4.09798 249.646C6.17398 248.28 10.948 251.825 12.506 252.994C14.795 254.711 17.546 257.303 17.754 260.117C18.009 263.402 15.057 261.487 13.302 260.863H13.301Z" fill="#FFC727"/>
<path opacity="0.1" d="M13.301 260.863C11.057 261.024 9.78598 264.669 8.07498 265.783C7.16998 266.376 6.26698 266.376 5.58098 265.488C3.75398 263.132 6.01998 260.054 8.19498 258.298C6.61898 259.017 5.33598 260.224 3.62198 260.618C2.58398 260.849 1.75698 260.493 1.47298 259.44C0.586984 256.167 4.67198 254.541 7.50998 254.364C6.09598 253.459 2.04898 251.006 4.09798 249.646C6.17398 248.28 10.948 251.825 12.506 252.994C14.795 254.711 17.546 257.303 17.754 260.117C18.009 263.402 15.057 261.487 13.302 260.863H13.301Z" fill="#11151D"/>
<path d="M13.973 261.392C11.051 260.195 5.60401 262.285 5.09401 261.216C4.05901 259.039 8.41001 257.354 10.779 256.969C8.56401 256.458 4.32801 255.673 4.37701 253.554C4.43601 250.967 10.805 252.947 14.079 255.265C18.203 258.185 18.29 261.151 17.65 261.77C16.772 262.619 14.455 261.59 13.973 261.393V261.392Z" fill="#FFC727"/>
<path d="M29.551 291.732C30.551 298.208 31.791 304.904 33.757 311.161C33.945 311.731 34.791 311.585 34.704 310.97C33.814 304.983 32.192 299.106 31.303 293.119C30.399 287.061 29.916 280.919 30.263 274.792C30.833 264.703 33.573 253.971 40.157 246.076C40.302 245.889 39.995 245.624 39.846 245.798C26.665 261.166 28.762 280.009 28.774 281.698C26.908 275.335 24.985 268.043 17.927 261.564C17.623 261.284 17.385 261.417 17.436 261.892C18.698 273.693 21.979 279.854 28.821 286.163C29.015 288.034 29.256 289.895 29.554 291.732H29.551Z" fill="#242A34"/>
<path d="M40.274 247.843C42.645 246.79 45.916 249.809 48.262 250.015C49.504 250.127 50.424 249.637 50.64 248.361C51.222 244.972 47.245 243.07 44.08 242.462C46.074 242.339 48.035 242.871 49.992 242.342C51.174 242.014 51.822 241.203 51.541 239.977C50.667 236.166 45.628 236.726 42.643 238.086C43.591 236.398 46.378 231.706 43.556 231.434C40.702 231.17 37.767 237.368 36.816 239.402C35.418 242.392 34.024 246.521 35.34 249.498C36.862 252.979 38.828 249.429 40.276 247.842L40.274 247.843Z" fill="#FFC727"/>
<path opacity="0.1" d="M40.274 247.843C42.645 246.79 45.916 249.809 48.262 250.015C49.504 250.127 50.424 249.637 50.64 248.361C51.222 244.972 47.245 243.07 44.08 242.462C46.074 242.339 48.035 242.871 49.992 242.342C51.174 242.014 51.822 241.203 51.541 239.977C50.667 236.166 45.628 236.726 42.643 238.086C43.591 236.398 46.378 231.706 43.556 231.434C40.702 231.17 37.767 237.368 36.816 239.402C35.418 242.392 34.024 246.521 35.34 249.498C36.862 252.979 38.828 249.429 40.276 247.842L40.274 247.843Z" fill="#11151D"/>
<path d="M39.878 248.746C42.203 245.943 48.879 245.115 48.818 243.75C48.691 240.974 43.348 241.619 40.729 242.512C42.706 240.791 46.59 237.693 45.391 235.563C43.927 232.962 38.52 238.433 36.446 242.568C33.833 247.777 35.353 250.842 36.341 251.125C37.695 251.513 39.494 249.209 39.878 248.746Z" fill="#FFC727"/>
<path d="M20.879 295.283L15.066 339.699H50.44C49.711 335.763 43.128 295.232 43.128 295.232L20.879 295.283Z" fill="#FFC727"/>
<path d="M0 339.849L51.656 339.606L103.313 339.517L206.626 339.35L309.939 339.516L361.595 339.604L413.252 339.849L361.595 340.093L309.939 340.181L206.626 340.348L103.313 340.18L51.656 340.092L0 339.849Z" fill="#242A34"/>
<path d="M206.626 426.821C288.948 426.821 355.683 417.385 355.683 405.746C355.683 394.107 288.948 384.671 206.626 384.671C124.304 384.671 57.569 394.107 57.569 405.746C57.569 417.385 124.304 426.821 206.626 426.821Z" fill="#242A34"/>
<path d="M165.301 29.167C163.2 29.167 161.295 28.756 159.585 27.935C157.874 27.114 156.407 26.023 155.182 24.663C153.956 23.304 153.007 21.748 152.334 19.997C151.661 18.246 151.324 16.456 151.324 14.624C151.324 12.712 151.68 10.881 152.394 9.13C153.107 7.379 154.091 5.831 155.343 4.485C156.595 3.138 158.083 2.068 159.807 1.273C161.53 0.479001 163.402 0.0820007 165.422 0.0820007C167.496 0.0820007 169.387 0.506001 171.098 1.354C172.808 2.202 174.269 3.313 175.481 4.687C176.693 6.061 177.635 7.623 178.309 9.373C178.982 11.124 179.319 12.901 179.319 14.705C179.319 16.618 178.968 18.441 178.269 20.179C177.568 21.916 176.599 23.451 175.36 24.784C174.121 26.117 172.64 27.182 170.917 27.975C169.193 28.77 167.321 29.167 165.302 29.167H165.301ZM156.979 14.624C156.979 15.863 157.167 17.062 157.544 18.219C157.921 19.377 158.466 20.401 159.18 21.289C159.893 22.178 160.769 22.891 161.806 23.43C162.842 23.969 164.021 24.238 165.341 24.238C166.687 24.238 167.879 23.962 168.916 23.41C169.953 22.859 170.828 22.124 171.542 21.208C172.255 20.293 172.794 19.263 173.158 18.118C173.522 16.974 173.703 15.809 173.703 14.623C173.703 13.385 173.507 12.186 173.117 11.028C172.726 9.87 172.174 8.847 171.461 7.958C170.747 7.069 169.872 6.363 168.836 5.837C167.799 5.312 166.634 5.049 165.342 5.049C163.995 5.049 162.797 5.325 161.746 5.877C160.696 6.429 159.821 7.156 159.121 8.058C158.42 8.961 157.889 9.984 157.525 11.128C157.161 12.273 156.98 13.438 156.98 14.622L156.979 14.624Z" fill="#242A34"/>
<path d="M192.851 29.368C191.127 29.368 189.579 29.072 188.206 28.479C186.832 27.887 185.667 27.085 184.711 26.076C183.755 25.066 183.021 23.901 182.509 22.581C181.997 21.262 181.741 19.874 181.741 18.42C181.741 16.939 181.997 15.539 182.509 14.219C183.02 12.9 183.755 11.735 184.711 10.725C185.667 9.71501 186.832 8.91401 188.206 8.32101C189.579 7.72901 191.127 7.43201 192.851 7.43201C194.575 7.43201 196.116 7.72901 197.476 8.32101C198.835 8.91401 199.994 9.71501 200.95 10.725C201.906 11.735 202.64 12.9 203.152 14.219C203.663 15.539 203.919 16.939 203.919 18.42C203.919 19.874 203.663 21.262 203.152 22.581C202.64 23.901 201.913 25.065 200.971 26.076C200.028 27.086 198.87 27.887 197.497 28.479C196.124 29.071 194.575 29.368 192.852 29.368H192.851ZM187.316 18.421C187.316 19.364 187.458 20.219 187.74 20.986C188.023 21.754 188.413 22.42 188.911 22.986C189.409 23.551 189.995 23.989 190.668 24.298C191.341 24.608 192.068 24.763 192.85 24.763C193.632 24.763 194.358 24.608 195.031 24.298C195.704 23.989 196.29 23.551 196.788 22.986C197.286 22.42 197.677 21.747 197.959 20.966C198.242 20.185 198.383 19.324 198.383 18.38C198.383 17.465 198.241 16.617 197.959 15.835C197.676 15.054 197.286 14.381 196.788 13.815C196.289 13.249 195.704 12.812 195.031 12.502C194.358 12.192 193.631 12.037 192.85 12.037C192.069 12.037 191.341 12.199 190.668 12.522C189.995 12.845 189.409 13.29 188.911 13.855C188.413 14.421 188.022 15.094 187.74 15.875C187.457 16.656 187.316 17.506 187.316 18.421Z" fill="#242A34"/>
<path d="M220.239 29.368C218.569 29.368 217.115 28.998 215.877 28.257C214.638 27.517 213.668 26.514 212.968 25.248V37.569H207.555V7.79701H212.281V11.432C213.062 10.194 214.072 9.21701 215.311 8.50301C216.549 7.79001 217.977 7.43301 219.592 7.43301C221.02 7.43301 222.339 7.72301 223.551 8.30201C224.763 8.88101 225.807 9.66201 226.682 10.645C227.557 11.628 228.244 12.786 228.743 14.119C229.241 15.452 229.49 16.86 229.49 18.341C229.49 19.876 229.261 21.317 228.803 22.663C228.345 24.01 227.705 25.182 226.884 26.178C226.062 27.175 225.086 27.955 223.955 28.521C222.824 29.086 221.585 29.369 220.238 29.369L220.239 29.368ZM218.422 24.763C219.23 24.763 219.977 24.588 220.664 24.238C221.35 23.888 221.936 23.417 222.421 22.825C222.905 22.233 223.282 21.546 223.552 20.764C223.821 19.983 223.956 19.176 223.956 18.341C223.956 17.452 223.808 16.624 223.512 15.857C223.215 15.089 222.805 14.423 222.28 13.857C221.755 13.292 221.136 12.847 220.422 12.524C219.708 12.201 218.934 12.039 218.1 12.039C217.588 12.039 217.063 12.127 216.525 12.302C215.986 12.477 215.488 12.726 215.03 13.05C214.572 13.373 214.162 13.751 213.798 14.181C213.435 14.612 213.158 15.084 212.97 15.595V20.564C213.455 21.776 214.196 22.779 215.192 23.573C216.188 24.368 217.266 24.765 218.424 24.765L218.422 24.763Z" fill="#242A34"/>
<path d="M241.165 29.368C239.388 29.368 237.65 29.085 235.954 28.52C234.257 27.954 232.803 27.146 231.591 26.096L233.611 22.703C234.904 23.619 236.163 24.312 237.388 24.783C238.614 25.255 239.832 25.49 241.044 25.49C242.12 25.49 242.969 25.288 243.589 24.884C244.208 24.48 244.518 23.901 244.518 23.147C244.518 22.393 244.155 21.841 243.427 21.491C242.7 21.141 241.515 20.737 239.872 20.279C238.499 19.902 237.327 19.538 236.357 19.188C235.387 18.838 234.606 18.44 234.014 17.996C233.421 17.552 232.991 17.04 232.721 16.461C232.451 15.882 232.318 15.188 232.318 14.38C232.318 13.303 232.526 12.334 232.944 11.471C233.361 10.61 233.947 9.87501 234.701 9.26901C235.455 8.66301 236.338 8.19901 237.347 7.87501C238.357 7.55201 239.453 7.39001 240.639 7.39001C242.228 7.39001 243.715 7.61901 245.103 8.07701C246.49 8.53501 247.762 9.27501 248.92 10.299L246.738 13.571C245.661 12.763 244.618 12.171 243.607 11.794C242.597 11.417 241.594 11.229 240.598 11.229C239.682 11.229 238.914 11.417 238.295 11.794C237.675 12.172 237.365 12.777 237.365 13.612C237.365 13.989 237.439 14.298 237.588 14.541C237.735 14.783 237.972 14.999 238.295 15.187C238.618 15.376 239.042 15.558 239.567 15.732C240.092 15.908 240.745 16.089 241.526 16.277C242.98 16.654 244.225 17.031 245.262 17.408C246.299 17.785 247.147 18.216 247.807 18.7C248.467 19.185 248.951 19.744 249.262 20.376C249.571 21.009 249.726 21.77 249.726 22.659C249.726 24.733 248.959 26.369 247.423 27.567C245.889 28.766 243.801 29.364 241.162 29.364L241.165 29.368Z" fill="#242A34"/>
<path d="M254.293 18.179V0H259.706V18.179H254.293ZM254.293 28.965V22.865H259.706V28.965H254.293Z" fill="#242A34"/>
<path d="M227.227 270.551H191.715V273.46H227.227V270.551Z" fill="#37474F"/>
<path d="M227.227 274.34H191.715V277.249H227.227V274.34Z" fill="#37474F"/>
<path d="M227.227 278.129H191.715V281.038H227.227V278.129Z" fill="#37474F"/>
<path d="M227.227 281.919H191.715V284.828H227.227V281.919Z" fill="#37474F"/>
<path d="M227.227 285.708H191.715V288.617H227.227V285.708Z" fill="#37474F"/>
<path d="M242.6 361.299H175.084V364.208H242.6V361.299Z" fill="#37474F"/>
<path d="M242.6 365.088H175.084V367.997H242.6V365.088Z" fill="#37474F"/>
<path d="M242.6 368.878H175.084V371.787H242.6V368.878Z" fill="#37474F"/>
<path d="M242.6 372.667H175.084V375.576H242.6V372.667Z" fill="#37474F"/>
<path d="M242.6 376.456H175.084V379.365H242.6V376.456Z" fill="#37474F"/>
<path d="M145.46 246.504C145.493 246.111 130.683 241.15 130.683 241.15L131.558 190.264L151.197 186.05L145.461 246.505L145.46 246.504Z" fill="#FFC727"/>
<path opacity="0.2" d="M145.46 246.504C145.493 246.111 130.683 241.15 130.683 241.15L131.558 190.264L151.197 186.05L145.461 246.505L145.46 246.504Z" fill="#11151D"/>
<path d="M281.115 266.478C281.219 266.097 296.833 266.536 296.833 266.536L313.523 218.457L296.534 207.742L281.115 266.478Z" fill="#FFC727"/>
<path opacity="0.2" d="M281.115 266.478C281.219 266.097 296.833 266.536 296.833 266.536L313.523 218.457L296.534 207.742L281.115 266.478Z" fill="#11151D"/>
<path d="M142.609 265.241C142.609 265.241 148.1 182.943 152.916 155.87C152.916 155.87 252.333 163.389 306.002 183.902C306.002 183.902 278.333 280.029 276.901 284.8C276.901 284.8 206.893 271.009 142.609 265.241Z" fill="#FFC727"/>
<path opacity="0.1" d="M231.348 166.861C229.732 176.77 228.096 186.676 226.403 196.572L221.279 226.251L221.003 225.832L254.314 233.745L270.952 237.777L287.571 241.889L270.864 238.15L254.176 234.332L220.835 226.544L220.498 226.465L220.559 226.124L225.864 196.477C227.647 186.597 229.487 176.728 231.348 166.861Z" fill="#11151D"/>
<path opacity="0.1" d="M227.693 172.508C227.711 173.416 226.987 174.35 225.947 174.44C225.443 174.487 224.895 174.327 224.485 173.97C224.075 173.613 223.83 173.063 223.827 172.508C223.829 171.953 224.073 171.402 224.484 171.045C224.893 170.685 225.443 170.527 225.947 170.574C226.988 170.665 227.711 171.6 227.693 172.508ZM227.693 172.508C227.689 172.05 227.486 171.6 227.144 171.311C226.802 171.022 226.354 170.904 225.947 170.951C225.108 171.048 224.564 171.801 224.576 172.508C224.563 173.215 225.106 173.972 225.947 174.067C226.354 174.113 226.803 173.995 227.145 173.706C227.486 173.417 227.689 172.966 227.693 172.508Z" fill="#11151D"/>
<path opacity="0.1" d="M225.947 184.754C225.965 185.662 225.241 186.596 224.201 186.686C223.697 186.733 223.149 186.573 222.739 186.216C222.329 185.859 222.084 185.309 222.081 184.754C222.083 184.199 222.327 183.648 222.738 183.291C223.147 182.931 223.697 182.773 224.201 182.82C225.242 182.911 225.965 183.846 225.947 184.754ZM225.947 184.754C225.943 184.296 225.74 183.846 225.399 183.557C225.057 183.268 224.609 183.15 224.202 183.197C223.363 183.294 222.819 184.047 222.831 184.754C222.818 185.461 223.361 186.218 224.202 186.313C224.609 186.359 225.058 186.241 225.4 185.951C225.741 185.662 225.944 185.211 225.948 184.753L225.947 184.754Z" fill="#11151D"/>
<path opacity="0.1" d="M223.797 197.693C223.815 198.601 223.091 199.535 222.051 199.625C221.547 199.672 220.999 199.512 220.589 199.155C220.179 198.798 219.934 198.248 219.931 197.693C219.933 197.138 220.177 196.587 220.588 196.23C220.997 195.87 221.547 195.712 222.051 195.759C223.092 195.85 223.815 196.785 223.797 197.693ZM223.797 197.693C223.793 197.235 223.59 196.785 223.249 196.496C222.907 196.207 222.459 196.089 222.052 196.136C221.213 196.233 220.669 196.986 220.681 197.693C220.668 198.4 221.211 199.157 222.052 199.252C222.459 199.299 222.908 199.18 223.25 198.891C223.591 198.602 223.794 198.151 223.798 197.693H223.797Z" fill="#11151D"/>
<path opacity="0.1" d="M221.647 210.632C221.666 211.54 220.941 212.474 219.901 212.564C219.397 212.611 218.849 212.452 218.439 212.094C218.029 211.737 217.784 211.187 217.781 210.632C217.783 210.077 218.028 209.526 218.438 209.169C218.847 208.809 219.397 208.651 219.901 208.698C220.942 208.789 221.665 209.724 221.647 210.632ZM221.647 210.632C221.643 210.174 221.44 209.724 221.099 209.435C220.757 209.146 220.309 209.028 219.902 209.075C219.063 209.172 218.519 209.925 218.531 210.632C218.518 211.339 219.061 212.096 219.902 212.191C220.309 212.237 220.758 212.119 221.1 211.829C221.441 211.54 221.644 211.089 221.648 210.631L221.647 210.632Z" fill="#11151D"/>
<path opacity="0.1" d="M228.973 231.267C228.992 232.175 228.267 233.108 227.227 233.199C226.723 233.246 226.175 233.086 225.765 232.729C225.355 232.372 225.11 231.822 225.107 231.267C225.109 230.712 225.353 230.161 225.764 229.804C226.173 229.444 226.723 229.286 227.227 229.333C228.268 229.424 228.991 230.359 228.973 231.267ZM228.973 231.267C228.969 230.809 228.766 230.359 228.425 230.07C228.083 229.781 227.635 229.663 227.228 229.71C226.389 229.807 225.845 230.56 225.857 231.267C225.844 231.974 226.387 232.731 227.228 232.826C227.635 232.873 228.084 232.754 228.426 232.465C228.767 232.176 228.969 231.725 228.973 231.267Z" fill="#11151D"/>
<path opacity="0.1" d="M241.186 234.246C241.205 235.154 240.48 236.088 239.44 236.178C238.936 236.225 238.388 236.066 237.978 235.708C237.568 235.351 237.323 234.801 237.32 234.246C237.323 233.691 237.567 233.14 237.977 232.783C238.386 232.423 238.936 232.265 239.44 232.312C240.481 232.404 241.204 233.338 241.186 234.246ZM241.186 234.246C241.182 233.788 240.979 233.338 240.638 233.049C240.296 232.76 239.848 232.642 239.441 232.689C238.602 232.786 238.058 233.539 238.07 234.246C238.057 234.953 238.6 235.71 239.441 235.805C239.848 235.852 240.297 235.733 240.639 235.443C240.98 235.154 241.183 234.703 241.187 234.245L241.186 234.246Z" fill="#11151D"/>
<path opacity="0.1" d="M253.4 237.225C253.418 238.133 252.694 239.067 251.654 239.157C251.15 239.204 250.602 239.044 250.192 238.687C249.782 238.33 249.537 237.78 249.534 237.225C249.536 236.67 249.78 236.119 250.191 235.762C250.6 235.402 251.15 235.244 251.654 235.291C252.695 235.382 253.418 236.317 253.4 237.225ZM253.4 237.225C253.396 236.767 253.193 236.317 252.852 236.028C252.51 235.739 252.062 235.621 251.655 235.668C250.816 235.765 250.272 236.518 250.284 237.225C250.271 237.932 250.814 238.689 251.655 238.784C252.062 238.83 252.511 238.712 252.853 238.422C253.194 238.133 253.397 237.682 253.401 237.224L253.4 237.225Z" fill="#11151D"/>
<path opacity="0.1" d="M265.613 240.204C265.632 241.112 264.907 242.046 263.867 242.136C263.363 242.183 262.815 242.024 262.405 241.666C261.995 241.309 261.75 240.759 261.747 240.204C261.749 239.649 261.993 239.098 262.404 238.741C262.813 238.381 263.363 238.223 263.867 238.27C264.908 238.361 265.631 239.296 265.613 240.204ZM265.613 240.204C265.609 239.746 265.406 239.296 265.065 239.007C264.723 238.718 264.275 238.6 263.868 238.647C263.029 238.744 262.485 239.497 262.497 240.204C262.484 240.911 263.027 241.668 263.868 241.763C264.275 241.809 264.724 241.691 265.066 241.402C265.407 241.113 265.61 240.662 265.614 240.204H265.613Z" fill="#11151D"/>
<path opacity="0.1" d="M277.821 243.318C277.77 244.225 276.976 245.1 275.932 245.11C275.426 245.119 274.892 244.917 274.511 244.529C274.13 244.141 273.927 243.575 273.967 243.021C274.012 242.468 274.298 241.938 274.735 241.613C275.171 241.286 275.731 241.17 276.23 241.256C277.261 241.427 277.91 242.415 277.822 243.319L277.821 243.318ZM277.821 243.318C277.852 242.861 277.684 242.397 277.366 242.082C277.047 241.767 276.609 241.615 276.2 241.631C275.356 241.663 274.755 242.372 274.713 243.078C274.646 243.782 275.129 244.578 275.96 244.738C276.362 244.816 276.819 244.733 277.182 244.47C277.545 244.208 277.781 243.774 277.821 243.318Z" fill="#11151D"/>
<path opacity="0.1" d="M219.497 223.57C219.515 224.478 218.791 225.412 217.751 225.502C217.247 225.549 216.699 225.389 216.289 225.032C215.879 224.675 215.634 224.125 215.631 223.57C215.634 223.015 215.878 222.464 216.288 222.107C216.697 221.747 217.247 221.588 217.751 221.636C218.792 221.727 219.515 222.662 219.497 223.57ZM219.497 223.57C219.493 223.112 219.29 222.662 218.948 222.373C218.606 222.084 218.158 221.966 217.751 222.013C216.912 222.11 216.368 222.863 216.38 223.57C216.367 224.277 216.91 225.034 217.751 225.129C218.158 225.175 218.607 225.057 218.948 224.767C219.289 224.478 219.492 224.027 219.496 223.569L219.497 223.57Z" fill="#11151D"/>
<path opacity="0.2" d="M198.937 245.005C210.53 234.58 211.478 216.73 201.053 205.136C190.628 193.542 172.779 192.595 161.185 203.019C149.591 213.444 148.643 231.294 159.068 242.888C169.493 254.482 187.343 255.429 198.937 245.005Z" fill="#11151D"/>
<path d="M201.234 232.028C205.661 220.334 199.769 207.265 188.075 202.838C176.38 198.412 163.311 204.303 158.885 215.998C154.458 227.692 160.35 240.761 172.044 245.188C183.739 249.614 196.808 243.723 201.234 232.028Z" fill="#242A34"/>
<path d="M178.692 215.705L173.399 214.848L172.541 220.141L177.834 220.998L178.692 215.705Z" fill="#FFC727"/>
<path d="M174.255 209.554L168.962 208.697L168.105 213.99L173.398 214.847L174.255 209.554Z" fill="#FFC727"/>
<path d="M195.428 212.985L190.135 212.127L189.277 217.42L194.57 218.278L195.428 212.985Z" fill="#FFC727"/>
<path d="M170.845 230.608L165.552 229.75L164.694 235.043L169.987 235.901L170.845 230.608Z" fill="#FFC727"/>
<path d="M192.017 234.037L186.724 233.18L185.866 238.473L191.159 239.33L192.017 234.037Z" fill="#FFC727"/>
<path d="M176.996 226.171L171.703 225.314L170.845 230.607L176.138 231.464L176.996 226.171Z" fill="#FFC727"/>
<path d="M183.137 221.797L177.844 220.939L176.986 226.232L182.279 227.09L183.137 221.797Z" fill="#FFC727"/>
<path d="M189.277 217.42L183.984 216.563L183.127 221.856L188.42 222.713L189.277 217.42Z" fill="#FFC727"/>
<path d="M187.582 227.887L182.289 227.029L181.431 232.322L186.724 233.18L187.582 227.887Z" fill="#FFC727"/>
<path d="M277.654 253.741C287.537 241.681 285.772 223.894 273.712 214.012C261.652 204.129 243.865 205.894 233.982 217.954C224.1 230.014 225.865 247.801 237.925 257.684C249.984 267.566 267.772 265.801 277.654 253.741Z" fill="#FFC727"/>
<path opacity="0.2" d="M277.654 253.741C287.537 241.681 285.772 223.894 273.712 214.012C261.652 204.129 243.865 205.894 233.982 217.954C224.1 230.014 225.865 247.801 237.925 257.684C249.984 267.566 267.772 265.801 277.654 253.741Z" fill="#11151D"/>
<path opacity="0.2" d="M283.286 242.377C283.156 242.933 283.008 243.47 282.841 244.007L227.813 232.27C227.943 231.288 228.119 230.306 228.35 229.315C231.954 214.15 247.174 204.775 262.349 208.378C277.514 211.982 286.889 227.202 283.286 242.377Z" fill="#11151D"/>
<path d="M264.546 256.735C276.084 251.915 281.529 238.654 276.708 227.116C271.888 215.578 258.627 210.133 247.089 214.954C235.551 219.774 230.106 233.035 234.927 244.573C239.747 256.111 253.008 261.556 264.546 256.735Z" fill="#242A34"/>
<path d="M261.51 223.483L256.293 222.243L250.122 248.209L255.339 249.449L261.51 223.483Z" fill="#FFC727"/>
<path d="M284.924 241.847L227.123 228.11C230.916 212.152 246.932 202.292 262.89 206.084C278.848 209.876 288.716 225.888 284.924 241.846V241.847Z" fill="#FFC727"/>
<path opacity="0.2" d="M284.924 241.847L227.123 228.11C230.916 212.152 246.932 202.292 262.89 206.084C278.848 209.876 288.716 225.888 284.924 241.846V241.847Z" fill="#11151D"/>
<path opacity="0.1" d="M206.697 252.628C206.843 250.371 207.672 248.082 209.309 246.272C210.116 245.36 211.193 244.644 212.379 244.207C213.571 243.769 214.859 243.692 216.08 243.796C217.323 243.941 218.592 244.379 219.628 245.163C220.644 245.963 221.423 247.006 221.881 248.129C222.824 250.367 222.927 252.759 222.47 254.977C222.094 252.76 221.521 250.607 220.48 248.84C219.447 247.059 217.813 245.952 215.866 245.78C213.88 245.533 211.942 246.066 210.382 247.385C208.821 248.701 207.629 250.584 206.698 252.629L206.697 252.628Z" fill="#11151D"/>
<path d="M150.342 195.045C150.576 192.029 150.915 189.027 151.201 186.018C151.522 183.014 151.852 180.011 152.217 177.014C152.564 174.014 152.955 171.02 153.339 168.024C153.715 165.028 154.149 162.04 154.551 159.047L154.658 158.248L155.468 158.299C161.982 158.709 168.482 159.235 174.973 159.903C178.218 160.236 181.459 160.612 184.695 161.029C187.926 161.494 191.161 161.921 194.374 162.509L174.857 161.301L155.361 160.04L156.278 159.292C155.835 162.279 155.423 165.27 154.954 168.253C154.492 171.237 154.038 174.222 153.539 177.201C153.059 180.182 152.544 183.159 152.019 186.134C151.46 189.104 150.953 192.082 150.342 195.045Z" fill="white"/>
<path d="M155.037 217.861C155.692 214.235 157.34 210.78 159.554 207.771C160.105 207.014 160.732 206.315 161.335 205.595C161.988 204.921 162.667 204.269 163.337 203.608C164.068 203.014 164.806 202.425 165.556 201.854C166.353 201.349 167.14 200.822 167.95 200.337C168.803 199.928 169.651 199.505 170.512 199.115L173.194 198.187L175.97 197.614C176.902 197.478 177.849 197.449 178.784 197.379C182.548 197.282 186.253 198.085 189.653 199.462C186.034 198.784 182.428 198.408 178.873 198.747C175.327 199.078 171.881 200.138 168.8 201.873C165.695 203.568 162.945 205.906 160.622 208.622C158.308 211.352 156.393 214.444 155.037 217.861Z" fill="white"/>
<path d="M232.912 225.488C234.062 221.987 236.171 218.793 238.779 216.118C239.429 215.445 240.147 214.839 240.844 214.209C241.583 213.632 242.346 213.08 243.101 212.517C243.907 212.03 244.719 211.548 245.541 211.086C246.4 210.696 247.252 210.282 248.122 209.914C249.024 209.626 249.922 209.324 250.828 209.058L253.613 208.509L256.442 208.325C257.384 208.318 258.325 208.421 259.261 208.48C263.003 208.904 266.56 210.211 269.738 212.044C266.247 210.873 262.728 210.002 259.16 209.848C255.602 209.686 252.043 210.26 248.752 211.554C245.443 212.804 242.396 214.74 239.72 217.109C237.051 219.494 234.728 222.291 232.912 225.488Z" fill="white"/>
<path d="M145.767 315.958C138.535 315.958 122.703 314.332 112.515 301.233C99.481 284.475 104.192 252.319 104.398 250.958L110.057 251.818C110.01 252.127 105.513 282.908 117.033 297.72C128.296 312.201 148.725 310.122 148.93 310.097L149.574 315.784C149.35 315.809 147.95 315.958 145.767 315.958Z" fill="#FFC727"/>
<path opacity="0.4" d="M145.767 315.958C138.535 315.958 122.703 314.332 112.515 301.233C99.481 284.475 104.192 252.319 104.398 250.958L110.057 251.818C110.01 252.127 105.513 282.908 117.033 297.72C128.296 312.201 148.725 310.122 148.93 310.097L149.574 315.784C149.35 315.809 147.95 315.958 145.767 315.958Z" fill="white"/>
<path d="M111.723 255.71C110.691 255.71 109.637 255.624 108.564 255.45C99.018 253.904 94.792 248.192 92.927 243.672C91.058 239.142 90.626 233.662 91.643 227.386L103.749 229.348C103.119 233.236 103.302 236.663 104.264 238.995C104.95 240.659 106.282 242.657 110.525 243.344C112.463 243.658 114.558 243.492 116.752 240.183C118.445 237.629 119.463 234.153 119.819 231.951L131.925 233.912C131.645 235.644 130.458 241.704 126.973 246.96C123.182 252.677 117.847 255.71 111.723 255.71Z" fill="#FFC727"/>
<path d="M157.726 332.338C157.705 332.077 147.47 330.442 147.47 330.442L142.502 297.037L154.899 292.14L157.727 332.338H157.726Z" fill="#FFC727"/>
<path opacity="0.2" d="M157.726 332.338C157.705 332.077 147.47 330.442 147.47 330.442L142.502 297.037L154.899 292.14L157.727 332.338H157.726Z" fill="#11151D"/>
<path d="M258.922 332.4C258.949 332.139 269.218 330.731 269.218 330.731L274.923 297.444L262.637 292.274L258.922 332.4Z" fill="#FFC727"/>
<path opacity="0.2" d="M258.922 332.4C258.949 332.139 269.218 330.731 269.218 330.731L274.923 297.444L262.637 292.274L258.922 332.4Z" fill="#11151D"/>
<path d="M153.467 284.66C153.467 284.66 236.253 281.12 264.218 285.781C264.218 285.781 256.006 365.887 255.562 367.441C255.562 367.441 173.211 367.219 160.338 367.441C160.338 367.441 153.361 314.174 153.467 284.66Z" fill="#FFC727"/>
<path opacity="0.2" d="M178.612 306.611C178.612 306.611 223.805 304.826 239.072 307.176C239.072 307.176 234.589 347.57 234.347 348.353C234.347 348.353 189.391 348.241 182.364 348.353C182.364 348.353 179.276 320.707 178.613 306.61L178.612 306.611Z" fill="#11151D"/>
<path opacity="0.2" d="M184.79 348.337C183.756 348.337 182.935 348.35 182.361 348.357C182.361 348.357 179.278 320.706 178.61 306.61C178.61 306.61 179.638 306.57 181.433 306.51L184.79 348.337Z" fill="#11151D"/>
<path d="M198.12 316.579C195.587 315.781 192.888 317.188 192.09 319.718C191.291 322.254 192.698 324.95 195.232 325.748C197.763 326.546 200.459 325.141 201.257 322.608C202.055 320.077 200.651 317.377 198.12 316.579ZM200.7 322.432C199.999 324.658 197.63 325.892 195.407 325.191C193.184 324.49 191.95 322.122 192.651 319.896C193.352 317.673 195.721 316.439 197.946 317.14C200.167 317.84 201.401 320.209 200.7 322.432ZM198.12 316.579C195.587 315.781 192.888 317.188 192.09 319.718C191.291 322.254 192.698 324.95 195.232 325.748C197.763 326.546 200.459 325.141 201.257 322.608C202.055 320.077 200.651 317.377 198.12 316.579ZM200.7 322.432C199.999 324.658 197.63 325.892 195.407 325.191C193.184 324.49 191.95 322.122 192.651 319.896C193.352 317.673 195.721 316.439 197.946 317.14C200.167 317.84 201.401 320.209 200.7 322.432ZM198.12 316.579C195.587 315.781 192.888 317.188 192.09 319.718C191.291 322.254 192.698 324.95 195.232 325.748C197.763 326.546 200.459 325.141 201.257 322.608C202.055 320.077 200.651 317.377 198.12 316.579ZM200.7 322.432C199.999 324.658 197.63 325.892 195.407 325.191C193.184 324.49 191.95 322.122 192.651 319.896C193.352 317.673 195.721 316.439 197.946 317.14C200.167 317.84 201.401 320.209 200.7 322.432ZM199.722 311.501C194.381 309.819 188.694 312.786 187.011 318.119C185.33 323.455 188.291 329.146 193.63 330.827C198.963 332.507 204.655 329.544 206.336 324.208C208.019 318.875 205.056 313.181 199.722 311.501ZM201.971 322.832C201.05 325.755 197.926 327.383 195.006 326.463C192.086 325.543 190.458 322.419 191.378 319.496C192.299 316.573 195.425 314.948 198.345 315.868C201.263 316.788 202.891 319.912 201.971 322.832ZM201.257 322.608C202.055 320.077 200.651 317.377 198.12 316.579C195.587 315.781 192.888 317.188 192.09 319.718C191.291 322.254 192.698 324.95 195.232 325.748C197.763 326.546 200.459 325.141 201.257 322.608ZM200.7 322.431C199.999 324.657 197.63 325.891 195.407 325.19C193.184 324.489 191.95 322.121 192.651 319.895C193.352 317.672 195.721 316.438 197.946 317.139C200.167 317.839 201.401 320.208 200.7 322.431ZM198.12 316.578C195.587 315.78 192.888 317.188 192.09 319.718C191.291 322.254 192.698 324.95 195.232 325.748C197.763 326.546 200.459 325.14 201.257 322.607C202.055 320.076 200.651 317.376 198.12 316.578ZM200.7 322.431C199.999 324.657 197.63 325.891 195.407 325.19C193.184 324.489 191.95 322.121 192.651 319.895C193.352 317.672 195.721 316.438 197.946 317.139C200.167 317.839 201.401 320.208 200.7 322.431ZM198.12 316.578C195.587 315.78 192.888 317.188 192.09 319.718C191.291 322.254 192.698 324.95 195.232 325.748C197.763 326.546 200.459 325.14 201.257 322.607C202.055 320.076 200.651 317.376 198.12 316.578ZM200.7 322.431C199.999 324.657 197.63 325.891 195.407 325.19C193.184 324.489 191.95 322.121 192.651 319.895C193.352 317.672 195.721 316.438 197.946 317.139C200.167 317.839 201.401 320.208 200.7 322.431Z" fill="#FFC727"/>
<path d="M195.614 331.011L191.898 329.84L191.275 332.535L194.58 333.576L195.614 331.011Z" fill="#FFC727"/>
<path d="M188.936 327.531L187.137 324.075L184.791 325.54L186.391 328.613L188.936 327.531Z" fill="#FFC727"/>
<path d="M186.676 320.348L187.846 316.633L185.152 316.009L184.11 319.314L186.676 320.348Z" fill="#FFC727"/>
<path d="M190.156 313.671L193.611 311.871L192.146 309.525L189.073 311.125L190.156 313.671Z" fill="#FFC727"/>
<path d="M197.338 311.41L201.054 312.581L201.677 309.886L198.372 308.844L197.338 311.41Z" fill="#FFC727"/>
<path d="M204.016 314.89L205.815 318.345L208.161 316.88L206.561 313.807L204.016 314.89Z" fill="#FFC727"/>
<path d="M206.277 322.073L205.106 325.788L207.801 326.411L208.842 323.107L206.277 322.073Z" fill="#FFC727"/>
<path d="M202.796 328.75L199.341 330.549L200.806 332.895L203.879 331.295L202.796 328.75Z" fill="#FFC727"/>
<path d="M214.461 330.718C212.963 329.742 210.958 330.167 209.983 331.663C209.006 333.163 209.432 335.166 210.93 336.142C212.427 337.117 214.429 336.693 215.405 335.195C216.38 333.698 215.958 331.693 214.461 330.718ZM215.076 334.98C214.219 336.297 212.459 336.669 211.144 335.812C209.829 334.956 209.457 333.196 210.314 331.88C211.17 330.565 212.93 330.193 214.246 331.05C215.56 331.906 215.932 333.665 215.075 334.98H215.076ZM214.461 330.718C212.963 329.742 210.958 330.167 209.983 331.663C209.006 333.163 209.432 335.166 210.93 336.142C212.427 337.117 214.429 336.693 215.405 335.195C216.38 333.698 215.958 331.693 214.461 330.718ZM215.076 334.98C214.219 336.297 212.459 336.669 211.144 335.812C209.829 334.956 209.457 333.196 210.314 331.88C211.17 330.565 212.93 330.193 214.246 331.05C215.56 331.906 215.932 333.665 215.075 334.98H215.076ZM214.461 330.718C212.963 329.742 210.958 330.167 209.983 331.663C209.006 333.163 209.432 335.166 210.93 336.142C212.427 337.117 214.429 336.693 215.405 335.195C216.38 333.698 215.958 331.693 214.461 330.718ZM215.076 334.98C214.219 336.297 212.459 336.669 211.144 335.812C209.829 334.956 209.457 333.196 210.314 331.88C211.17 330.565 212.93 330.193 214.246 331.05C215.56 331.906 215.932 333.665 215.075 334.98H215.076ZM216.419 327.715C213.259 325.659 209.035 326.554 206.979 329.709C204.924 332.866 205.815 337.092 208.973 339.147C212.128 341.201 216.355 340.308 218.41 337.152C220.465 333.998 219.574 329.769 216.419 327.715ZM215.829 335.47C214.703 337.199 212.383 337.69 210.656 336.565C208.929 335.44 208.438 333.12 209.563 331.391C210.689 329.662 213.01 329.173 214.737 330.298C216.463 331.422 216.954 333.743 215.829 335.47ZM215.406 335.196C216.381 333.699 215.959 331.694 214.462 330.719C212.964 329.743 210.959 330.168 209.984 331.664C209.007 333.164 209.433 335.167 210.931 336.143C212.428 337.118 214.43 336.694 215.406 335.196ZM215.076 334.98C214.219 336.297 212.46 336.669 211.145 335.812C209.83 334.956 209.458 333.196 210.315 331.88C211.171 330.565 212.93 330.193 214.246 331.05C215.56 331.906 215.933 333.665 215.076 334.98ZM214.462 330.718C212.964 329.742 210.958 330.167 209.983 331.663C209.006 333.163 209.433 335.166 210.931 336.142C212.428 337.117 214.43 336.693 215.406 335.195C216.381 333.698 215.959 331.693 214.462 330.718ZM215.076 334.98C214.219 336.297 212.46 336.669 211.145 335.812C209.83 334.956 209.458 333.196 210.315 331.88C211.171 330.565 212.93 330.193 214.246 331.05C215.56 331.906 215.933 333.665 215.076 334.98ZM214.462 330.718C212.964 329.742 210.958 330.167 209.983 331.663C209.006 333.163 209.433 335.166 210.931 336.142C212.428 337.117 214.43 336.693 215.406 335.195C216.381 333.698 215.959 331.693 214.462 330.718ZM215.076 334.98C214.219 336.297 212.46 336.669 211.145 335.812C209.83 334.956 209.458 333.196 210.315 331.88C211.171 330.565 212.93 330.193 214.246 331.05C215.56 331.906 215.933 333.665 215.076 334.98Z" fill="#DBDBDB"/>
<path d="M210.226 339.624L208.028 338.193L207.137 339.828L209.091 341.1L210.226 339.624Z" fill="#DBDBDB"/>
<path d="M206.525 336.16L205.983 333.594L204.196 334.119L204.678 336.402L206.525 336.16Z" fill="#DBDBDB"/>
<path d="M206.357 331.093L207.789 328.895L206.154 328.003L204.881 329.958L206.357 331.093Z" fill="#DBDBDB"/>
<path d="M209.822 327.392L212.388 326.85L211.862 325.063L209.58 325.546L209.822 327.392Z" fill="#DBDBDB"/>
<path d="M214.889 327.224L217.086 328.655L217.978 327.021L216.023 325.748L214.889 327.224Z" fill="#DBDBDB"/>
<path d="M218.59 330.689L219.132 333.255L220.918 332.729L220.436 330.447L218.59 330.689Z" fill="#DBDBDB"/>
<path d="M218.757 335.756L217.326 337.953L218.961 338.845L220.234 336.89L218.757 335.756Z" fill="#DBDBDB"/>
<path d="M215.293 339.456L212.727 339.999L213.252 341.785L215.535 341.303L215.293 339.456Z" fill="#DBDBDB"/>
<path d="M262.22 358.119L265.402 358.711L274.501 297.084L270.876 296.419L262.22 358.119Z" fill="#FFC727"/>
<path d="M234.347 348.354L239.072 307.177L270.876 296.419C270.876 296.419 262.22 358.786 262.22 358.12L234.346 348.355L234.347 348.354Z" fill="#FFC727"/>
<path opacity="0.4" d="M234.347 348.354L239.072 307.177L270.876 296.419C270.876 296.419 262.22 358.786 262.22 358.12L234.346 348.355L234.347 348.354Z" fill="white"/>
<path d="M157.266 308.845C156.748 305.434 156.468 301.995 156.255 298.553C156.157 296.831 156.113 295.107 156.075 293.383C156.041 291.659 156.011 289.933 156.062 288.208L156.075 287.755L156.516 287.731C162.834 287.392 169.148 286.977 175.47 286.7C181.79 286.388 188.11 286.105 194.435 285.907C188.13 286.478 181.822 286.964 175.512 287.422C169.204 287.915 162.889 288.269 156.578 288.699L157.032 288.222L157.006 293.371L157.066 298.523C157.075 300.241 157.106 301.96 157.156 303.679L157.265 308.843L157.266 308.845Z" fill="white"/>
<path d="M243.508 307.781C245.478 306.845 247.479 305.975 249.504 305.172C251.523 304.35 253.56 303.572 255.621 302.858C257.685 302.153 259.756 301.463 261.862 300.878C263.964 300.286 266.086 299.739 268.254 299.384L268.787 299.297L268.692 299.806C268.193 302.472 267.671 305.134 267.054 307.781C267.285 305.073 267.611 302.379 267.96 299.69L268.398 300.112C266.297 300.613 264.213 301.199 262.135 301.813C260.059 302.434 257.989 303.087 255.925 303.76L243.509 307.782L243.508 307.781Z" fill="white"/>
<path opacity="0.1" d="M171.029 284.828L171.565 295.127L172.023 305.429L172.817 326.037L173.438 346.651L173.686 356.96L173.856 367.272L173.319 356.973L172.861 346.671L172.068 326.063L171.449 305.449L171.2 295.139L171.029 284.828Z" fill="#11151D"/>
<path opacity="0.1" d="M168.079 291.036C168.277 291.923 167.751 292.981 166.75 293.275C166.265 293.421 165.697 293.373 165.224 293.103C164.751 292.834 164.402 292.344 164.29 291.8C164.183 291.255 164.313 290.667 164.645 290.236C164.975 289.803 165.483 289.538 165.986 289.485C167.025 289.369 167.918 290.142 168.079 291.036ZM168.079 291.036C167.984 290.588 167.697 290.187 167.305 289.971C166.913 289.755 166.45 289.728 166.06 289.855C165.257 290.116 164.872 290.961 165.024 291.653C165.151 292.348 165.833 292.983 166.676 292.91C167.084 292.875 167.501 292.671 167.778 292.319C168.056 291.968 168.165 291.485 168.079 291.036Z" fill="#11151D"/>
<path opacity="0.1" d="M168.788 303.385C168.986 304.272 168.46 305.33 167.459 305.624C166.974 305.77 166.406 305.722 165.933 305.452C165.46 305.183 165.111 304.693 164.999 304.149C164.892 303.604 165.022 303.016 165.354 302.585C165.684 302.152 166.191 301.887 166.695 301.834C167.734 301.718 168.627 302.491 168.788 303.385ZM168.788 303.385C168.693 302.937 168.406 302.536 168.014 302.32C167.622 302.104 167.159 302.077 166.769 302.204C165.966 302.465 165.581 303.31 165.733 304.002C165.86 304.697 166.542 305.332 167.385 305.259C167.793 305.224 168.21 305.019 168.487 304.668C168.764 304.317 168.874 303.834 168.788 303.385Z" fill="#11151D"/>
<path opacity="0.1" d="M169.238 316.493C169.436 317.38 168.91 318.438 167.909 318.732C167.424 318.878 166.856 318.83 166.383 318.56C165.91 318.291 165.561 317.801 165.449 317.257C165.342 316.713 165.472 316.124 165.804 315.693C166.134 315.26 166.642 314.995 167.145 314.942C168.184 314.826 169.077 315.6 169.238 316.493ZM169.238 316.493C169.143 316.045 168.856 315.644 168.464 315.428C168.072 315.212 167.609 315.185 167.219 315.312C166.416 315.573 166.031 316.418 166.183 317.109C166.31 317.805 166.992 318.439 167.835 318.366C168.243 318.331 168.66 318.127 168.937 317.775C169.214 317.424 169.324 316.942 169.238 316.493Z" fill="#11151D"/>
<path opacity="0.1" d="M169.688 329.602C169.886 330.489 169.36 331.547 168.359 331.841C167.874 331.987 167.306 331.939 166.833 331.669C166.36 331.4 166.011 330.91 165.899 330.366C165.792 329.821 165.922 329.233 166.254 328.802C166.584 328.369 167.091 328.104 167.595 328.051C168.634 327.935 169.527 328.708 169.688 329.602ZM169.688 329.602C169.593 329.154 169.306 328.753 168.914 328.537C168.522 328.321 168.059 328.294 167.669 328.421C166.866 328.682 166.481 329.527 166.633 330.219C166.76 330.914 167.442 331.549 168.285 331.476C168.693 331.441 169.11 331.237 169.387 330.885C169.664 330.534 169.774 330.053 169.688 329.603V329.602Z" fill="#11151D"/>
<path opacity="0.1" d="M170.138 342.71C170.336 343.597 169.81 344.655 168.809 344.949C168.324 345.095 167.756 345.047 167.283 344.777C166.81 344.508 166.461 344.018 166.349 343.474C166.242 342.929 166.372 342.341 166.704 341.91C167.034 341.477 167.542 341.212 168.045 341.159C169.084 341.043 169.977 341.816 170.139 342.71H170.138ZM170.138 342.71C170.043 342.262 169.755 341.861 169.364 341.645C168.972 341.429 168.509 341.402 168.119 341.529C167.316 341.79 166.931 342.635 167.083 343.327C167.21 344.022 167.892 344.657 168.735 344.584C169.143 344.549 169.56 344.345 169.837 343.993C170.114 343.642 170.224 343.16 170.138 342.711V342.71Z" fill="#11151D"/>
<path opacity="0.1" d="M170.588 355.819C170.786 356.706 170.26 357.764 169.259 358.058C168.774 358.204 168.206 358.156 167.733 357.886C167.26 357.617 166.911 357.127 166.799 356.583C166.692 356.039 166.822 355.45 167.154 355.019C167.484 354.585 167.991 354.321 168.495 354.268C169.534 354.152 170.427 354.926 170.588 355.819ZM170.588 355.819C170.493 355.371 170.206 354.97 169.814 354.754C169.422 354.538 168.959 354.511 168.569 354.638C167.766 354.899 167.381 355.744 167.533 356.436C167.66 357.131 168.342 357.766 169.185 357.693C169.593 357.658 170.01 357.454 170.287 357.102C170.564 356.751 170.674 356.269 170.588 355.82V355.819Z" fill="#11151D"/>
<path d="M174.652 375.862L127.777 390.068L129.437 395.545L176.312 381.339L174.652 375.862Z" fill="#FFC727"/>
<path opacity="0.4" d="M174.652 375.862L127.777 390.068L129.437 395.545L176.312 381.339L174.652 375.862Z" fill="white"/>
<path d="M152.2 380.782L146.746 382.517L149.323 390.618L154.777 388.883L152.2 380.782Z" fill="#FFC727"/>
<path d="M129.053 403.569L116.957 351.189L80.447 359.845L98.425 410.893L129.053 403.569Z" fill="#FFC727"/>
<path d="M137.154 400.905L129.053 403.569L116.957 351.189L128.609 353.964L137.154 400.905Z" fill="#FFC727"/>
<path opacity="0.2" d="M137.154 400.905L129.053 403.569L116.957 351.189L128.609 353.964L137.154 400.905Z" fill="#11151D"/>
<path d="M175.485 384.814C178.917 384.814 181.699 382.032 181.699 378.6C181.699 375.168 178.917 372.386 175.485 372.386C172.053 372.386 169.271 375.168 169.271 378.6C169.271 382.032 172.053 384.814 175.485 384.814Z" fill="#FFC727"/>
<path d="M239.438 375.718L237.767 381.191L284.613 395.495L286.284 390.021L239.438 375.718Z" fill="#FFC727"/>
<path opacity="0.4" d="M239.438 375.718L237.767 381.191L284.613 395.495L286.284 390.021L239.438 375.718Z" fill="white"/>
<path d="M261.889 380.692L259.294 388.787L264.744 390.534L267.339 382.439L261.889 380.692Z" fill="#FFC727"/>
<path d="M284.983 403.523L297.191 351.17L333.682 359.903L315.596 410.912L284.983 403.523Z" fill="#FFC727"/>
<path d="M276.888 400.843L284.983 403.523L297.191 351.17L285.533 353.919L276.888 400.843Z" fill="#FFC727"/>
<path opacity="0.2" d="M276.888 400.843L284.983 403.523L297.191 351.17L285.533 353.919L276.888 400.843Z" fill="#11151D"/>
<path d="M232.39 378.443C232.383 381.875 235.159 384.663 238.591 384.671C242.023 384.678 244.811 381.902 244.819 378.47C244.826 375.038 242.05 372.25 238.618 372.242C235.186 372.235 232.398 375.011 232.39 378.443Z" fill="#FFC727"/>
<path d="M279.288 313.837C279.435 313.699 294.491 299.734 312.203 304.511C330.315 309.398 345.269 336.678 345.417 336.953L350.451 334.232C349.797 333.021 334.2 304.508 313.692 298.986C292.835 293.361 276.05 309.02 275.345 309.69L279.287 313.838L279.288 313.837Z" fill="#FFC727"/>
<path opacity="0.4" d="M279.288 313.837C279.435 313.699 294.491 299.734 312.203 304.511C330.315 309.398 345.269 336.678 345.417 336.953L350.451 334.232C349.797 333.021 334.2 304.508 313.692 298.986C292.835 293.361 276.05 309.02 275.345 309.69L279.287 313.838L279.288 313.837Z" fill="white"/>
<path d="M338.743 364.417L349.589 358.691C348.548 356.72 347.266 353.331 347.08 350.273C346.839 346.309 348.411 344.914 350.147 343.998C353.947 341.991 356.215 342.787 357.764 343.699C359.937 344.982 362.146 347.607 363.986 351.091L374.832 345.365C371.864 339.743 368.219 335.629 363.998 333.138C359.787 330.656 352.973 328.639 344.421 333.153C337.755 336.672 334.352 343.017 334.839 351.018C335.222 357.313 337.924 362.865 338.743 364.417Z" fill="#FFC727"/>
<path d="M281.575 294.728C283.926 293.104 286.332 291.574 288.747 290.058C291.156 288.533 293.605 287.075 296.054 285.617C298.515 284.18 300.977 282.745 303.479 281.376L307.233 279.326C308.503 278.674 309.755 277.993 311.041 277.367C309.871 278.188 308.668 278.953 307.482 279.748L303.87 282.038C301.46 283.563 299.012 285.021 296.562 286.477C294.1 287.913 291.638 289.348 289.136 290.716C286.64 292.094 284.135 293.457 281.575 294.726V294.728Z" fill="#242A34"/>
<path d="M275.346 318.129C278.712 320.047 281.903 322.212 285.051 324.437C288.181 326.687 291.267 328.998 294.175 331.558C290.807 329.642 287.617 327.477 284.47 325.25C281.341 322.999 278.256 320.687 275.346 318.128V318.129Z" fill="#242A34"/>
<path d="M280.875 315.25C283.473 316.039 286.031 316.931 288.582 317.838C291.138 318.734 293.666 319.704 296.193 320.674C298.712 321.666 301.23 322.66 303.72 323.726L307.454 325.328C308.685 325.896 309.929 326.432 311.149 327.029C309.847 326.644 308.567 326.198 307.276 325.785L303.441 324.443C300.885 323.546 298.357 322.577 295.831 321.606C293.313 320.613 290.794 319.619 288.305 318.552C285.811 317.496 283.323 316.424 280.875 315.25Z" fill="#242A34"/>
<path d="M288.256 296.923C290.746 296.276 293.254 295.737 295.766 295.214C298.275 294.68 300.799 294.224 303.322 293.767C305.849 293.334 308.377 292.903 310.918 292.548L314.73 292.019C316.007 291.879 317.278 291.705 318.56 291.595C317.317 291.929 316.063 292.199 314.814 292.502L311.05 293.305C308.54 293.838 306.017 294.295 303.494 294.75C300.966 295.182 298.439 295.613 295.898 295.967C293.359 296.332 290.817 296.681 288.256 296.922V296.923Z" fill="#242A34"/>
<path d="M228.248 312.493C228.67 310.469 229.349 308.498 230.227 306.618C231.106 304.74 232.182 302.939 233.532 301.338C234.886 299.754 236.552 298.357 238.557 297.584C240.562 296.837 242.857 296.843 244.868 297.646C246.903 298.439 248.508 300.149 249.373 302.115C249.822 303.097 250.103 304.15 250.219 305.227C250.32 306.302 250.277 307.42 249.849 308.494C249.631 309.022 249.29 309.555 248.744 309.91C248.48 310.094 248.157 310.199 247.84 310.248C247.528 310.293 247.208 310.279 246.844 310.153C246.175 309.868 245.84 309.33 245.552 308.845C245.295 308.341 245.097 307.825 244.962 307.304C244.4 305.217 244.343 303.094 244.442 300.995C244.74 296.814 245.838 292.632 248.091 289.034C249.228 287.256 250.654 285.619 252.427 284.423C254.177 283.219 256.226 282.39 258.318 282.15C259.347 281.901 260.41 281.924 261.461 281.873C261.988 281.817 262.511 281.945 263.036 281.972C263.557 282.041 264.09 282.032 264.598 282.183C266.675 282.556 268.629 283.39 270.453 284.399C272.266 285.444 273.881 286.786 275.355 288.242C276.816 289.713 278.145 291.322 279.213 293.094C276.848 289.719 273.803 286.789 270.213 284.827C268.406 283.888 266.497 283.117 264.486 282.805C263.995 282.668 263.48 282.692 262.978 282.636C262.473 282.621 261.97 282.506 261.464 282.574C260.455 282.648 259.439 282.643 258.454 282.908C256.438 283.192 254.568 284.003 252.922 285.133C251.268 286.265 249.934 287.818 248.862 289.518C246.739 292.957 245.7 297.019 245.44 301.055C245.327 303.072 245.378 305.134 245.882 307.05C246.122 307.966 246.556 308.998 247.187 309.287C247.268 309.295 247.322 309.338 247.419 309.341C247.517 309.333 247.622 309.355 247.715 309.331C247.904 309.3 248.089 309.249 248.249 309.135C248.577 308.929 248.837 308.563 249.012 308.143C249.363 307.293 249.427 306.285 249.338 305.314C249.24 304.337 248.99 303.367 248.586 302.467C247.795 300.669 246.392 299.114 244.574 298.352C242.766 297.584 240.649 297.522 238.772 298.175C236.886 298.852 235.257 300.152 233.899 301.66C231.177 304.708 229.34 308.524 228.248 312.493Z" fill="#242A34"/>
<path d="M135.843 338.409C136.808 336.59 138.227 335.016 139.884 333.772C141.539 332.528 143.439 331.563 145.484 331.09C147.518 330.603 149.703 330.595 151.738 331.213C153.774 331.822 155.608 333.016 157.076 334.537C158.554 336.057 159.658 337.903 160.418 339.866C161.163 341.833 161.61 343.94 161.452 346.095C161.345 347.155 161.13 348.3 160.291 349.217C159.875 349.668 159.233 349.966 158.606 349.976C158.004 349.97 157.435 349.881 156.883 349.586C156.334 349.303 155.894 348.811 155.643 348.267C155.388 347.722 155.293 347.145 155.268 346.587C155.228 345.467 155.47 344.403 155.799 343.391C156.47 341.364 157.572 339.537 158.86 337.883C160.155 336.23 161.679 334.758 163.387 333.532C166.775 331.072 171.091 329.705 175.301 330.256C177.379 330.537 179.441 331.137 181.26 332.197C183.095 333.222 184.686 334.645 185.983 336.271C187.279 337.904 188.289 339.739 189.067 341.651C189.845 343.564 190.419 345.561 190.701 347.599C189.861 343.592 188.213 339.7 185.588 336.594C184.288 335.042 182.721 333.71 180.943 332.771C179.18 331.798 177.202 331.275 175.211 331.052C171.211 330.617 167.153 331.893 163.926 334.28C160.703 336.651 158.066 339.96 156.733 343.703C156.419 344.636 156.2 345.612 156.229 346.552C156.251 347.485 156.579 348.381 157.328 348.759C157.681 348.962 158.16 349.041 158.578 349.049C158.983 349.038 159.343 348.877 159.632 348.578C160.216 347.969 160.466 346.972 160.554 346.017C160.711 344.063 160.307 342.042 159.608 340.175C158.9 338.303 157.848 336.557 156.488 335.096C155.131 333.637 153.421 332.499 151.529 331.88C149.64 331.251 147.569 331.199 145.602 331.616C141.664 332.452 138.016 334.915 135.843 338.409Z" fill="#242A34"/>
<path d="M89.579 96.913C89.466 92.798 88.593 88.655 86.678 85.045C85.719 83.257 84.447 81.605 82.777 80.498C81.111 79.416 79.04 78.971 77.101 79.285C75.154 79.59 73.421 80.766 72.223 82.323C71.616 83.101 71.141 83.982 70.813 84.908C70.495 85.83 70.317 86.824 70.455 87.733C70.524 88.182 70.689 88.599 70.959 88.878C71.086 89.027 71.254 89.12 71.43 89.196C71.515 89.241 71.622 89.245 71.715 89.276C71.81 89.296 71.873 89.267 71.954 89.279C72.635 89.149 73.303 88.25 73.755 87.418C74.702 85.678 75.244 83.687 75.615 81.702C76.326 77.721 76.286 73.527 75.045 69.682C74.411 67.775 73.485 65.948 72.149 64.455C70.82 62.965 69.198 61.731 67.308 60.974C66.415 60.482 65.427 60.245 64.465 59.931C63.99 59.745 63.474 59.737 62.98 59.63C62.479 59.565 61.985 59.419 61.475 59.434C59.448 59.257 57.41 59.55 55.431 60.031C51.476 61.08 47.82 63.198 44.718 65.911C46.178 64.446 47.852 63.2 49.622 62.12C51.401 61.058 53.289 60.141 55.299 59.558C57.31 59.013 59.407 58.669 61.513 58.803C62.042 58.777 62.557 58.914 63.08 58.971C63.596 59.069 64.135 59.07 64.633 59.25C65.641 59.551 66.68 59.782 67.619 60.269C69.593 61.001 71.385 62.295 72.797 63.882C74.233 65.466 75.227 67.396 75.907 69.394C77.236 73.426 77.304 77.749 76.595 81.88C76.191 83.942 75.628 85.99 74.585 87.883C74.329 88.357 74.014 88.811 73.644 89.239C73.25 89.641 72.795 90.084 72.078 90.201C71.694 90.236 71.381 90.173 71.088 90.055C70.792 89.932 70.503 89.753 70.291 89.511C69.846 89.037 69.641 88.437 69.556 87.873C69.396 86.729 69.621 85.633 69.976 84.613C70.345 83.594 70.87 82.639 71.54 81.793C72.849 80.091 74.816 78.813 76.981 78.528C79.125 78.228 81.356 78.77 83.125 79.975C84.887 81.204 86.172 82.959 87.109 84.82C88.038 86.697 88.652 88.703 89.058 90.736C89.462 92.771 89.652 94.847 89.579 96.913Z" fill="#242A34"/>
<path d="M310.396 149.077C306.368 148.227 302.135 148.109 298.178 149.129C296.216 149.645 294.313 150.496 292.847 151.861C291.406 153.229 290.49 155.139 290.343 157.098C290.186 159.063 290.924 161.022 292.159 162.55C292.773 163.322 293.52 163.989 294.343 164.524C295.165 165.048 296.091 165.454 297.007 165.531C297.46 165.569 297.904 165.505 298.238 165.308C298.412 165.219 298.542 165.078 298.657 164.924C298.721 164.852 298.75 164.749 298.801 164.666C298.843 164.578 298.829 164.51 298.86 164.435C298.892 163.742 298.174 162.883 297.471 162.25C296 160.924 294.19 159.932 292.347 159.108C288.642 157.488 284.555 156.548 280.525 156.857C278.523 157.029 276.53 157.503 274.766 158.453C273.007 159.397 271.429 160.687 270.252 162.348C269.565 163.102 269.104 164.007 268.575 164.869C268.283 165.288 268.155 165.787 267.936 166.243C267.755 166.715 267.498 167.161 267.395 167.66C266.75 169.589 266.559 171.64 266.565 173.676C266.662 177.766 267.869 181.816 269.783 185.465C268.699 183.704 267.878 181.785 267.241 179.812C266.624 177.834 266.172 175.784 266.075 173.693C266.015 171.61 266.169 169.491 266.791 167.474C266.889 166.954 267.142 166.484 267.32 165.989C267.536 165.51 267.663 164.986 267.954 164.544C268.482 163.634 268.948 162.678 269.642 161.878C270.815 160.129 272.491 158.689 274.363 157.686C276.239 156.659 278.347 156.143 280.449 155.948C284.679 155.597 288.9 156.539 292.751 158.192C294.662 159.066 296.522 160.091 298.119 161.548C298.52 161.907 298.888 162.32 299.218 162.78C299.517 163.257 299.841 163.802 299.788 164.527C299.733 164.908 299.598 165.199 299.415 165.456C299.226 165.715 298.985 165.954 298.7 166.104C298.135 166.426 297.504 166.485 296.935 166.437C295.785 166.325 294.772 165.851 293.863 165.268C292.959 164.671 292.153 163.938 291.486 163.089C290.136 161.419 289.353 159.208 289.581 157.037C289.79 154.882 290.838 152.839 292.421 151.4C294.027 149.973 296.033 149.133 298.062 148.657C300.104 148.192 302.198 148.062 304.27 148.142C306.343 148.224 308.406 148.525 310.398 149.078L310.396 149.077Z" fill="#242A34"/>
<path d="M248.485 84.377C247.801 82.008 247.709 79.474 248.094 77.027C248.477 74.58 249.306 72.172 250.66 70.065C251.994 67.955 253.855 66.13 256.106 64.967C258.351 63.795 260.909 63.287 263.427 63.363C265.952 63.432 268.434 64.085 270.719 65.128C272.994 66.185 275.132 67.613 276.787 69.577C277.576 70.566 278.338 71.719 278.384 73.167C278.404 73.882 278.114 74.646 277.601 75.164C277.093 75.65 276.538 76.045 275.839 76.248C275.151 76.459 274.386 76.407 273.731 76.157C273.072 75.909 272.517 75.502 272.036 75.052C271.077 74.138 270.398 73.032 269.837 71.896C268.723 69.611 268.137 67.133 267.855 64.647C267.58 62.156 267.651 59.627 268.084 57.156C268.92 52.228 271.46 47.469 275.505 44.421C277.51 42.924 279.767 41.712 282.203 41.095C284.623 40.434 287.169 40.317 289.637 40.618C292.11 40.924 294.51 41.641 296.779 42.62C299.048 43.6 301.214 44.822 303.169 46.322C299.107 43.574 294.438 41.606 289.581 41.126C287.164 40.88 284.698 41.045 282.378 41.728C280.043 42.368 277.9 43.577 275.998 45.055C274.118 46.56 272.518 48.411 271.349 50.516C270.17 52.616 269.4 54.936 268.993 57.315C268.214 62.063 268.717 67.12 270.722 71.467C271.239 72.536 271.872 73.563 272.698 74.356C273.508 75.147 274.577 75.664 275.578 75.347C276.07 75.219 276.554 74.88 276.932 74.522C277.286 74.159 277.47 73.689 277.464 73.172C277.451 72.122 276.818 71.051 276.088 70.15C274.573 68.33 272.526 66.935 270.354 65.917C268.17 64.904 265.796 64.285 263.397 64.176C261.001 64.066 258.571 64.527 256.422 65.592C254.268 66.646 252.446 68.347 251.11 70.361C248.441 74.395 247.395 79.572 248.483 84.379L248.485 84.377Z" fill="#242A34"/>
<path d="M132.5 338.627C130.259 337.921 127.872 339.165 127.166 341.404C126.459 343.647 127.704 346.032 129.945 346.739C132.184 347.445 134.569 346.202 135.275 343.961C135.981 341.722 134.739 339.333 132.5 338.627ZM134.782 343.804C134.162 345.773 132.066 346.865 130.1 346.245C128.133 345.625 127.041 343.53 127.662 341.561C128.282 339.594 130.377 338.502 132.346 339.123C134.31 339.742 135.402 341.838 134.782 343.805V343.804ZM132.5 338.627C130.259 337.921 127.872 339.165 127.166 341.404C126.459 343.647 127.704 346.032 129.945 346.739C132.184 347.445 134.569 346.202 135.275 343.961C135.981 341.722 134.739 339.333 132.5 338.627ZM134.782 343.804C134.162 345.773 132.066 346.865 130.1 346.245C128.133 345.625 127.041 343.53 127.662 341.561C128.282 339.594 130.377 338.502 132.346 339.123C134.31 339.742 135.402 341.838 134.782 343.805V343.804ZM132.5 338.627C130.259 337.921 127.872 339.165 127.166 341.404C126.459 343.647 127.704 346.032 129.945 346.739C132.184 347.445 134.569 346.202 135.275 343.961C135.981 341.722 134.739 339.333 132.5 338.627ZM134.782 343.804C134.162 345.773 132.066 346.865 130.1 346.245C128.133 345.625 127.041 343.53 127.662 341.561C128.282 339.594 130.377 338.502 132.346 339.123C134.31 339.742 135.402 341.838 134.782 343.805V343.804ZM133.917 334.134C129.192 332.646 124.161 335.271 122.673 339.989C121.186 344.709 123.806 349.744 128.528 351.231C133.246 352.717 138.281 350.096 139.768 345.375C141.256 340.657 138.635 335.62 133.917 334.134ZM135.907 344.158C135.092 346.744 132.329 348.184 129.746 347.37C127.163 346.556 125.722 343.792 126.537 341.207C127.352 338.622 130.117 337.184 132.7 337.998C135.281 338.812 136.722 341.575 135.907 344.158ZM135.275 343.96C135.981 341.721 134.739 339.332 132.5 338.626C130.259 337.92 127.872 339.165 127.166 341.404C126.459 343.647 127.704 346.031 129.945 346.738C132.184 347.444 134.569 346.201 135.275 343.96ZM134.782 343.804C134.162 345.773 132.066 346.865 130.1 346.245C128.133 345.625 127.041 343.53 127.662 341.561C128.282 339.594 130.377 338.502 132.346 339.123C134.31 339.742 135.402 341.838 134.782 343.805V343.804ZM132.5 338.627C130.259 337.921 127.872 339.165 127.166 341.404C126.459 343.647 127.704 346.032 129.945 346.739C132.184 347.445 134.569 346.202 135.275 343.961C135.981 341.722 134.739 339.333 132.5 338.627ZM134.782 343.804C134.162 345.773 132.066 346.865 130.1 346.245C128.133 345.625 127.041 343.53 127.662 341.561C128.282 339.594 130.377 338.502 132.346 339.123C134.31 339.742 135.402 341.838 134.782 343.805V343.804ZM132.5 338.627C130.259 337.921 127.872 339.165 127.166 341.404C126.459 343.647 127.704 346.032 129.945 346.739C132.184 347.445 134.569 346.202 135.275 343.961C135.981 341.722 134.739 339.333 132.5 338.627ZM134.782 343.804C134.162 345.773 132.066 346.865 130.1 346.245C128.133 345.625 127.041 343.53 127.662 341.561C128.282 339.594 130.377 338.502 132.346 339.123C134.31 339.742 135.402 341.838 134.782 343.805V343.804Z" fill="#455A64"/>
<path d="M130.283 351.394L126.996 350.358L126.445 352.742L129.368 353.663L130.283 351.394Z" fill="#455A64"/>
<path d="M124.376 348.315L122.784 345.259L120.709 346.555L122.124 349.273L124.376 348.315Z" fill="#455A64"/>
<path d="M122.376 341.962L123.412 338.675L121.028 338.123L120.107 341.047L122.376 341.962Z" fill="#455A64"/>
<path d="M125.455 336.054L128.511 334.463L127.215 332.387L124.497 333.803L125.455 336.054Z" fill="#455A64"/>
<path d="M131.808 334.055L135.095 335.09L135.647 332.706L132.723 331.785L131.808 334.055Z" fill="#455A64"/>
<path d="M137.715 337.133L139.307 340.19L141.383 338.894L139.967 336.175L137.715 337.133Z" fill="#455A64"/>
<path d="M139.715 343.487L138.68 346.774L141.064 347.325L141.985 344.402L139.715 343.487Z" fill="#455A64"/>
<path d="M136.637 349.394L133.58 350.986L134.876 353.061L137.594 351.646L136.637 349.394Z" fill="#455A64"/>
<path d="M298.3 310.055C302.808 303.981 301.538 295.401 295.464 290.893C289.388 286.384 280.807 287.654 276.3 293.727C271.791 299.803 273.061 308.384 279.137 312.893C285.211 317.4 293.791 316.131 298.301 310.054L298.3 310.055ZM292.437 305.704C290.33 308.543 286.325 309.136 283.488 307.031C280.649 304.924 280.056 300.919 282.163 298.079C284.268 295.242 288.273 294.649 291.113 296.756C293.95 298.861 294.543 302.866 292.437 305.703V305.704Z" fill="#242A34"/>
<path d="M281.589 314.005L277.359 310.866L275.371 314.034L279.133 316.826L281.589 314.005Z" fill="#242A34"/>
<path d="M274.596 306.605L273.824 301.394L270.178 302.228L270.864 306.863L274.596 306.605Z" fill="#242A34"/>
<path d="M274.883 296.427L278.023 292.197L274.855 290.208L272.063 293.971L274.883 296.427Z" fill="#242A34"/>
<path d="M282.284 289.433L287.494 288.662L286.66 285.016L282.026 285.702L282.284 289.433Z" fill="#242A34"/>
<path d="M292.462 289.721L296.692 292.86L298.68 289.693L294.918 286.9L292.462 289.721Z" fill="#242A34"/>
<path d="M299.455 297.121L300.226 302.332L303.872 301.498L303.186 296.864L299.455 297.121Z" fill="#242A34"/>
<path d="M299.167 307.299L296.028 311.529L299.196 313.518L301.988 309.755L299.167 307.299Z" fill="#242A34"/>
<path d="M291.767 314.293L286.556 315.064L287.39 318.71L292.025 318.024L291.767 314.293Z" fill="#242A34"/>
<path d="M282.393 302.549L285.303 306.219L289.937 305.531L291.657 301.178L288.75 297.51L284.116 298.194L282.394 302.549H282.393ZM287.91 300.671C288.57 301.161 288.707 302.088 288.217 302.748C287.729 303.405 286.8 303.545 286.14 303.055C285.483 302.567 285.345 301.635 285.833 300.978C286.323 300.318 287.253 300.184 287.91 300.671Z" fill="#242A34"/>
<path d="M308.569 43.306C306.608 42.688 304.519 43.777 303.901 45.736C303.283 47.699 304.372 49.786 306.333 50.404C308.292 51.022 310.379 49.934 310.997 47.973C311.615 46.014 310.528 43.923 308.569 43.306ZM310.566 47.836C310.023 49.559 308.19 50.514 306.469 49.972C304.748 49.43 303.793 47.596 304.335 45.873C304.877 44.152 306.711 43.197 308.434 43.739C310.153 44.281 311.108 46.116 310.566 47.836ZM308.569 43.306C306.608 42.688 304.519 43.777 303.901 45.736C303.283 47.699 304.372 49.786 306.333 50.404C308.292 51.022 310.379 49.934 310.997 47.973C311.615 46.014 310.528 43.923 308.569 43.306ZM310.566 47.836C310.023 49.559 308.19 50.514 306.469 49.972C304.748 49.43 303.793 47.596 304.335 45.873C304.877 44.152 306.711 43.197 308.434 43.739C310.153 44.281 311.108 46.116 310.566 47.836ZM308.569 43.306C306.608 42.688 304.519 43.777 303.901 45.736C303.283 47.699 304.372 49.786 306.333 50.404C308.292 51.022 310.379 49.934 310.997 47.973C311.615 46.014 310.528 43.923 308.569 43.306ZM310.566 47.836C310.023 49.559 308.19 50.514 306.469 49.972C304.748 49.43 303.793 47.596 304.335 45.873C304.877 44.152 306.711 43.197 308.434 43.739C310.153 44.281 311.108 46.116 310.566 47.836ZM309.809 39.375C305.675 38.073 301.272 40.37 299.97 44.498C298.669 48.629 300.961 53.034 305.093 54.335C309.222 55.636 313.627 53.342 314.928 49.211C316.23 45.083 313.938 40.675 309.809 39.375ZM311.55 48.146C310.837 50.408 308.419 51.669 306.158 50.956C303.897 50.243 302.637 47.825 303.35 45.563C304.063 43.301 306.483 42.042 308.743 42.755C311.002 43.467 312.262 45.885 311.55 48.146ZM310.997 47.973C311.615 46.014 310.528 43.923 308.569 43.306C306.608 42.688 304.519 43.777 303.901 45.736C303.283 47.699 304.372 49.786 306.333 50.404C308.292 51.022 310.379 49.934 310.997 47.973ZM310.566 47.836C310.023 49.559 308.19 50.514 306.469 49.972C304.748 49.43 303.793 47.596 304.335 45.873C304.877 44.152 306.711 43.197 308.434 43.739C310.153 44.281 311.108 46.116 310.566 47.836ZM308.569 43.306C306.608 42.688 304.519 43.777 303.901 45.736C303.283 47.699 304.372 49.786 306.333 50.404C308.292 51.022 310.379 49.934 310.997 47.973C311.615 46.014 310.528 43.923 308.569 43.306ZM310.566 47.836C310.023 49.559 308.19 50.514 306.469 49.972C304.748 49.43 303.793 47.596 304.335 45.873C304.877 44.152 306.711 43.197 308.434 43.739C310.153 44.281 311.108 46.116 310.566 47.836ZM308.569 43.306C306.608 42.688 304.519 43.777 303.901 45.736C303.283 47.699 304.372 49.786 306.333 50.404C308.292 51.022 310.379 49.934 310.997 47.973C311.615 46.014 310.528 43.923 308.569 43.306ZM310.566 47.836C310.023 49.559 308.19 50.514 306.469 49.972C304.748 49.43 303.793 47.596 304.335 45.873C304.877 44.152 306.711 43.197 308.434 43.739C310.153 44.281 311.108 46.116 310.566 47.836Z" fill="#242A34"/>
<path d="M306.629 54.477L303.753 53.571L303.271 55.657L305.829 56.463L306.629 54.477Z" fill="#242A34"/>
<path d="M301.46 51.784L300.067 49.109L298.251 50.243L299.49 52.622L301.46 51.784Z" fill="#242A34"/>
<path d="M299.71 46.224L300.616 43.348L298.53 42.865L297.724 45.423L299.71 46.224Z" fill="#242A34"/>
<path d="M302.404 41.055L305.079 39.662L303.945 37.846L301.566 39.085L302.404 41.055Z" fill="#242A34"/>
<path d="M307.964 39.305L310.84 40.211L311.323 38.125L308.764 37.319L307.964 39.305Z" fill="#242A34"/>
<path d="M313.133 41.999L314.526 44.673L316.342 43.539L315.103 41.161L313.133 41.999Z" fill="#242A34"/>
<path d="M314.883 47.559L313.977 50.435L316.063 50.917L316.869 48.359L314.883 47.559Z" fill="#242A34"/>
<path d="M312.189 52.727L309.514 54.12L310.648 55.936L313.027 54.698L312.189 52.727Z" fill="#242A34"/>
<path d="M270.353 186.171C268.392 185.553 266.303 186.642 265.685 188.601C265.067 190.564 266.156 192.651 268.117 193.269C270.076 193.887 272.163 192.799 272.781 190.838C273.399 188.879 272.312 186.788 270.353 186.171ZM272.35 190.701C271.807 192.424 269.974 193.379 268.253 192.837C266.532 192.295 265.577 190.461 266.119 188.738C266.661 187.017 268.495 186.062 270.218 186.604C271.937 187.146 272.892 188.98 272.35 190.701ZM270.353 186.171C268.392 185.553 266.303 186.642 265.685 188.601C265.067 190.564 266.156 192.651 268.117 193.269C270.076 193.887 272.163 192.799 272.781 190.838C273.399 188.879 272.312 186.788 270.353 186.171ZM272.35 190.701C271.807 192.424 269.974 193.379 268.253 192.837C266.532 192.295 265.577 190.461 266.119 188.738C266.661 187.017 268.495 186.062 270.218 186.604C271.937 187.146 272.892 188.98 272.35 190.701ZM270.353 186.171C268.392 185.553 266.303 186.642 265.685 188.601C265.067 190.564 266.156 192.651 268.117 193.269C270.076 193.887 272.163 192.799 272.781 190.838C273.399 188.879 272.312 186.788 270.353 186.171ZM272.35 190.701C271.807 192.424 269.974 193.379 268.253 192.837C266.532 192.295 265.577 190.461 266.119 188.738C266.661 187.017 268.495 186.062 270.218 186.604C271.937 187.146 272.892 188.98 272.35 190.701ZM271.593 182.24C267.459 180.938 263.056 183.235 261.754 187.363C260.453 191.494 262.745 195.899 266.878 197.2C271.007 198.5 275.412 196.207 276.713 192.076C278.015 187.948 275.722 183.54 271.593 182.24ZM273.334 191.011C272.621 193.273 270.203 194.534 267.943 193.821C265.683 193.108 264.422 190.69 265.135 188.428C265.848 186.166 268.268 184.907 270.528 185.62C272.787 186.332 274.046 188.75 273.334 191.011ZM272.781 190.838C273.399 188.879 272.312 186.788 270.353 186.171C268.392 185.553 266.303 186.642 265.685 188.601C265.067 190.564 266.156 192.651 268.117 193.269C270.076 193.887 272.163 192.799 272.781 190.838ZM272.35 190.701C271.807 192.424 269.974 193.379 268.253 192.837C266.532 192.295 265.577 190.461 266.119 188.738C266.661 187.017 268.495 186.062 270.218 186.604C271.937 187.146 272.892 188.98 272.35 190.701ZM270.353 186.171C268.392 185.553 266.303 186.642 265.685 188.601C265.067 190.564 266.156 192.651 268.117 193.269C270.076 193.887 272.163 192.799 272.781 190.838C273.399 188.879 272.312 186.788 270.353 186.171ZM272.35 190.701C271.807 192.424 269.974 193.379 268.253 192.837C266.532 192.295 265.577 190.461 266.119 188.738C266.661 187.017 268.495 186.062 270.218 186.604C271.937 187.146 272.892 188.98 272.35 190.701ZM270.353 186.171C268.392 185.553 266.303 186.642 265.685 188.601C265.067 190.564 266.156 192.651 268.117 193.269C270.076 193.887 272.163 192.799 272.781 190.838C273.399 188.879 272.312 186.788 270.353 186.171ZM272.35 190.701C271.807 192.424 269.974 193.379 268.253 192.837C266.532 192.295 265.577 190.461 266.119 188.738C266.661 187.017 268.495 186.062 270.218 186.604C271.937 187.146 272.892 188.98 272.35 190.701Z" fill="#242A34"/>
<path d="M268.413 197.343L265.537 196.436L265.055 198.522L267.613 199.328L268.413 197.343Z" fill="#242A34"/>
<path d="M263.244 194.649L261.851 191.974L260.035 193.108L261.274 195.487L263.244 194.649Z" fill="#242A34"/>
<path d="M261.494 189.089L262.4 186.213L260.315 185.73L259.509 188.288L261.494 189.089Z" fill="#242A34"/>
<path d="M264.188 183.92L266.863 182.527L265.729 180.711L263.35 181.95L264.188 183.92Z" fill="#242A34"/>
<path d="M269.748 182.17L272.624 183.076L273.107 180.99L270.549 180.184L269.748 182.17Z" fill="#242A34"/>
<path d="M274.917 184.864L276.31 187.538L278.126 186.405L276.887 184.026L274.917 184.864Z" fill="#242A34"/>
<path d="M276.667 190.424L275.761 193.3L277.847 193.782L278.653 191.224L276.667 190.424Z" fill="#242A34"/>
<path d="M273.973 195.593L271.299 196.985L272.432 198.802L274.811 197.563L273.973 195.593Z" fill="#242A34"/>
<path d="M51.647 73.699C53.189 67.371 49.308 60.99 42.98 59.448C36.65 57.906 30.268 61.787 28.727 68.115C27.185 74.445 31.066 80.827 37.396 82.369C43.724 83.911 50.104 80.029 51.647 73.699ZM45.539 72.211C44.818 75.169 41.84 76.981 38.884 76.261C35.926 75.54 34.115 72.562 34.835 69.604C35.555 66.648 38.534 64.837 41.492 65.558C44.447 66.278 46.259 69.256 45.539 72.211Z" fill="#242A34"/>
<path d="M39.714 82.429L35.307 81.355L34.791 84.534L38.71 85.489L39.714 82.429Z" fill="#242A34"/>
<path d="M31.688 78.9L29.331 75.025L26.718 76.908L28.814 80.355L31.688 78.9Z" fill="#242A34"/>
<path d="M28.507 70.73L29.581 66.323L26.402 65.807L25.447 69.726L28.507 70.73Z" fill="#242A34"/>
<path d="M32.036 62.704L35.911 60.347L34.029 57.734L30.582 59.83L32.036 62.704Z" fill="#242A34"/>
<path d="M40.206 59.523L44.613 60.597L45.129 57.418L41.21 56.463L40.206 59.523Z" fill="#242A34"/>
<path d="M48.232 63.052L50.589 66.927L53.202 65.045L51.106 61.598L48.232 63.052Z" fill="#242A34"/>
<path d="M51.413 71.222L50.339 75.629L53.518 76.146L54.473 72.226L51.413 71.222Z" fill="#242A34"/>
<path d="M47.884 79.248L44.009 81.605L45.892 84.218L49.338 82.122L47.884 79.248Z" fill="#242A34"/>
<path d="M36.515 73.072L40.052 75.009L43.497 72.911L43.404 68.882L39.869 66.946L36.422 69.04L36.515 73.072ZM40.262 69.735C40.95 69.902 41.369 70.592 41.201 71.28C41.034 71.965 40.344 72.387 39.656 72.219C38.971 72.052 38.55 71.359 38.717 70.674C38.884 69.986 39.577 69.569 40.262 69.735Z" fill="#242A34"/>
<path d="M318.215 195.644C315.525 191.548 314.013 186.941 314.013 182.071C314.013 164.875 332.896 150.933 356.175 150.933C379.454 150.933 398.32 164.876 398.32 182.071C398.32 199.266 379.454 213.209 356.175 213.209C344.887 213.209 334.654 209.939 327.094 204.594L312.571 208.287L318.215 195.645V195.644Z" fill="white"/>
<path d="M318.216 195.644C315.678 191.864 314.087 187.398 313.921 182.811C313.795 178.234 314.923 173.603 317.274 169.642C319.572 165.652 322.847 162.288 326.547 159.582C330.251 156.861 334.421 154.806 338.775 153.361C343.129 151.906 347.666 151.034 352.242 150.668C356.825 150.333 361.439 150.617 365.968 151.366C367.093 151.597 368.235 151.751 369.346 152.046L372.676 152.942L375.929 154.091C377.011 154.481 378.039 155.008 379.096 155.46C383.248 157.435 387.141 160.023 390.415 163.29C393.681 166.544 396.315 170.52 397.704 174.969C399.09 179.402 399.19 184.268 397.842 188.726C396.53 193.199 393.957 197.216 390.735 200.513C387.506 203.823 383.644 206.457 379.513 208.477C375.383 210.521 370.933 211.852 366.42 212.672C361.9 213.448 357.286 213.78 352.708 213.457C348.131 213.168 343.584 212.332 339.228 210.894C334.877 209.461 330.69 207.46 326.964 204.781L327.151 204.816L312.599 208.394L312.379 208.448L312.472 208.243L318.216 195.646V195.644ZM318.216 195.644L312.672 208.33L312.545 208.179L327.039 204.372L327.139 204.346L327.227 204.407C334.705 209.569 343.724 212.256 352.751 212.739C357.275 213.019 361.825 212.648 366.269 211.845C370.709 211.02 375.083 209.701 379.127 207.683C383.173 205.69 386.942 203.1 390.073 199.87C393.198 196.652 395.668 192.759 396.917 188.458C398.204 184.17 398.081 179.514 396.752 175.261C395.431 170.988 392.905 167.137 389.738 163.963C386.565 160.778 382.769 158.234 378.704 156.286C377.668 155.84 376.662 155.319 375.601 154.934L372.41 153.796L369.139 152.906C368.048 152.612 366.924 152.459 365.818 152.228C361.363 151.472 356.818 151.198 352.299 151.488C347.786 151.809 343.304 152.629 338.998 154.026C334.692 155.413 330.562 157.403 326.889 160.052C323.216 162.685 319.98 165.975 317.646 169.858C315.27 173.721 314.085 178.265 314.137 182.803C314.23 187.35 315.739 191.823 318.218 195.643L318.216 195.644Z" fill="#242A34"/>
<path d="M334.487 187.169V189.484H325.053V175.896H334.316V178.212H327.695V181.485H333.417V183.629H327.695V187.17H334.488L334.487 187.169Z" fill="#242A34"/>
<path d="M336.555 189.484V175.896H342.565C343.19 175.896 343.767 176.027 344.296 176.289C344.825 176.551 345.281 176.895 345.664 177.322C346.047 177.75 346.347 178.235 346.563 178.777C346.78 179.32 346.888 179.865 346.888 180.413C346.888 181.293 346.668 182.094 346.228 182.815C345.789 183.536 345.192 184.056 344.439 184.374L347.54 189.484H344.573L341.799 184.929H339.196V189.484H336.554H336.555ZM339.197 182.613H342.508C342.75 182.613 342.977 182.556 343.187 182.441C343.398 182.326 343.579 182.17 343.733 181.972C343.886 181.775 344.007 181.542 344.096 181.274C344.186 181.006 344.231 180.719 344.231 180.413C344.231 180.094 344.179 179.801 344.078 179.533C343.976 179.265 343.839 179.033 343.666 178.835C343.494 178.637 343.296 178.484 343.073 178.376C342.849 178.268 342.623 178.213 342.393 178.213H339.198V182.614L339.197 182.613Z" fill="#242A34"/>
<path d="M349.28 189.484V175.896H355.29C355.915 175.896 356.492 176.027 357.021 176.289C357.55 176.551 358.006 176.895 358.389 177.322C358.772 177.75 359.072 178.235 359.288 178.777C359.505 179.32 359.613 179.865 359.613 180.413C359.613 181.293 359.393 182.094 358.953 182.815C358.514 183.536 357.917 184.056 357.164 184.374L360.264 189.484H357.297L354.523 184.929H351.921V189.484H349.279H349.28ZM351.922 182.613H355.232C355.474 182.613 355.701 182.556 355.911 182.441C356.122 182.326 356.303 182.17 356.457 181.972C356.61 181.775 356.731 181.542 356.82 181.274C356.91 181.006 356.955 180.719 356.955 180.413C356.955 180.094 356.903 179.801 356.802 179.533C356.699 179.265 356.563 179.033 356.39 178.835C356.218 178.637 356.02 178.484 355.797 178.376C355.573 178.268 355.347 178.213 355.117 178.213H351.922V182.613Z" fill="#242A34"/>
<path d="M367.806 189.58C366.811 189.58 365.909 189.386 365.098 188.997C364.287 188.608 363.592 188.091 363.012 187.447C362.431 186.803 361.982 186.066 361.662 185.237C361.344 184.408 361.185 183.559 361.185 182.692C361.185 181.786 361.354 180.919 361.692 180.089C362.03 179.26 362.496 178.526 363.088 177.888C363.682 177.25 364.387 176.743 365.203 176.367C366.019 175.99 366.906 175.802 367.863 175.802C368.845 175.802 369.741 176.003 370.551 176.405C371.361 176.807 372.054 177.333 372.627 177.984C373.201 178.634 373.648 179.375 373.967 180.204C374.286 181.034 374.445 181.875 374.445 182.73C374.445 183.636 374.279 184.5 373.948 185.323C373.616 186.146 373.156 186.873 372.57 187.505C371.983 188.137 371.281 188.641 370.465 189.017C369.649 189.393 368.762 189.581 367.805 189.581L367.806 189.58ZM363.864 182.69C363.864 183.277 363.953 183.845 364.132 184.393C364.311 184.942 364.569 185.427 364.907 185.848C365.245 186.269 365.66 186.607 366.151 186.862C366.642 187.117 367.2 187.245 367.826 187.245C368.464 187.245 369.028 187.115 369.519 186.853C370.01 186.592 370.424 186.244 370.763 185.81C371.101 185.376 371.356 184.888 371.529 184.346C371.701 183.804 371.787 183.252 371.787 182.691C371.787 182.104 371.694 181.537 371.51 180.988C371.325 180.44 371.064 179.954 370.726 179.533C370.387 179.112 369.973 178.777 369.482 178.529C368.991 178.28 368.439 178.155 367.827 178.155C367.188 178.155 366.621 178.286 366.124 178.548C365.626 178.81 365.211 179.154 364.88 179.581C364.548 180.009 364.296 180.494 364.124 181.036C363.951 181.578 363.865 182.13 363.865 182.691L363.864 182.69Z" fill="#242A34"/>
<path d="M376.474 189.484V175.896H382.484C383.109 175.896 383.686 176.027 384.215 176.289C384.744 176.551 385.2 176.895 385.583 177.322C385.966 177.75 386.266 178.235 386.482 178.777C386.699 179.32 386.807 179.865 386.807 180.413C386.807 181.293 386.587 182.094 386.147 182.815C385.708 183.536 385.111 184.056 384.358 184.374L387.459 189.484H384.492L381.718 184.929H379.115V189.484H376.473H376.474ZM379.116 182.613H382.427C382.669 182.613 382.896 182.556 383.106 182.441C383.317 182.326 383.499 182.17 383.652 181.972C383.805 181.775 383.926 181.542 384.015 181.274C384.105 181.006 384.15 180.719 384.15 180.413C384.15 180.094 384.098 179.801 383.997 179.533C383.895 179.265 383.758 179.033 383.585 178.835C383.413 178.637 383.215 178.484 382.992 178.376C382.768 178.268 382.542 178.213 382.312 178.213H379.117V182.614L379.116 182.613Z" fill="#242A34"/>
</g>
<defs>
<clipPath id="clip0_10_2">
<rect width="413.252" height="426.821" fill="white"/>
</clipPath>
</defs>
</svg>
