<svg width="15" height="13" viewBox="0 0 15 13" fill="none" xmlns="http://www.w3.org/2000/svg">
<path d="M13.209 1.56089C12.8857 1.22455 12.5019 0.957752 12.0795 0.775722C11.6571 0.593691 11.2043 0.5 10.7471 0.5C10.2898 0.5 9.83708 0.593691 9.41466 0.775722C8.99224 0.957752 8.60845 1.22455 8.28521 1.56089L7.61436 2.25857L6.94351 1.56089C6.29058 0.881838 5.40501 0.500352 4.48163 0.500352C3.55824 0.500352 2.67268 0.881838 2.01975 1.56089C1.36681 2.23994 1 3.16092 1 4.12124C1 5.08157 1.36681 6.00255 2.01975 6.6816L2.69059 7.37928L7.61436 12.5L12.5381 7.37928L13.209 6.6816C13.5324 6.34543 13.7889 5.94628 13.9639 5.50697C14.139 5.06765 14.2291 4.59678 14.2291 4.12124C14.2291 3.64571 14.139 3.17484 13.9639 2.73552C13.7889 2.29621 13.5324 1.89706 13.209 1.56089Z" stroke="white" stroke-linecap="round" stroke-linejoin="round"/>
</svg>
