<svg width="14" height="13" viewBox="0 0 14 13" fill="none" xmlns="http://www.w3.org/2000/svg">
<path d="M12.209 1.56089C11.8857 1.22455 11.5019 0.957752 11.0795 0.775722C10.6571 0.593691 10.2043 0.5 9.74709 0.5C9.28985 0.5 8.83708 0.593691 8.41466 0.775722C7.99224 0.957752 7.60845 1.22455 7.28521 1.56089L6.61436 2.25857L5.94351 1.56089C5.29058 0.881838 4.40501 0.500352 3.48163 0.500352C2.55824 0.500352 1.67268 0.881838 1.01975 1.56089C0.366813 2.23994 6.87976e-09 3.16092 0 4.12124C-6.87976e-09 5.08157 0.366813 6.00255 1.01975 6.6816L1.69059 7.37928L6.61436 12.5L11.5381 7.37928L12.209 6.6816C12.5324 6.34543 12.7889 5.94628 12.9639 5.50697C13.139 5.06765 13.2291 4.59678 13.2291 4.12124C13.2291 3.64571 13.139 3.17484 12.9639 2.73552C12.7889 2.29621 12.5324 1.89706 12.209 1.56089Z" fill="#E62447"/>
</svg>
